<?xml version="1.0" encoding="UTF-8"?>
<svg width="1200pt" height="1200pt" version="1.1" viewBox="0 0 1200 1200" xmlns="http://www.w3.org/2000/svg">
 <g>
  <path d="m693 808.89c0 72.215 58.754 130.97 130.97 130.97 72.238 0 130.99-58.754 130.99-130.97 0-72.215-58.754-130.97-130.99-130.97-72.215 0.003907-130.97 58.766-130.97 130.97zm130.97-94.965c52.379 0 94.992 42.602 94.992 94.969 0 52.367-42.613 94.969-94.992 94.969-52.367 0-94.969-42.602-94.969-94.969 0-52.371 42.602-94.969 94.969-94.969z"/>
  <path d="m243.05 808.89c0 72.215 58.754 130.97 130.97 130.97s130.96-58.754 130.96-130.97c0-72.215-58.754-130.97-130.96-130.97-72.203 0.003907-130.97 58.766-130.97 130.97zm225.93 0c0 52.367-42.602 94.969-94.957 94.969-52.367 0-94.969-42.602-94.969-94.969 0-52.367 42.602-94.969 94.969-94.969 52.355 0.003907 94.957 42.602 94.957 94.969z"/>
  <path d="m904.31 1054.6c-4.9062-4.9062-12.203-6.5625-18.758-4.2344-116.4 41.316-230.38-53.27-273.96-95.891-7.0078-6.8398-18.168-6.8398-25.176 0-43.598 42.613-157.59 137.26-274.01 95.914-6.5391-2.3281-13.836-0.67188-18.758 4.2227l-28.262 28.246c-7.0312 7.0312-7.0312 18.434-0.011719 25.465 3.5156 3.5156 8.1367 5.2695 12.742 5.2695 4.6094 0 9.2148-1.7539 12.73-5.2578l20.473-20.461c89.148 26.172 192.61-8.2578 287.69-95.723 95.051 87.457 198.54 121.93 287.64 95.699l20.473 20.473c7.0312 7.0312 18.422 7.0312 25.453 0s7.0312-18.422 0-25.453z"/>
  <path d="m1123.5 892.02-20.484-20.461c27.312-93.73-13.906-206.7-111.93-304.71-20.809-20.855-54.719-20.855-75.574-0.011719-20.832 20.832-20.832 54.73 0 75.562 83.039 83.039 89.062 197.55 14.316 272.29-83.629 83.641-197.39 52.738-273.01-15-38.746-34.727-77.699-34.645-115.7 0.15625-74.773 68.461-188.12 99.602-272.87 14.844-37.535-37.535-55.559-84.191-52.129-134.91 3.3125-49.043 26.914-97.824 66.469-137.36 20.809-20.844 20.797-54.742-0.011719-75.551-10.105-10.105-23.52-15.672-37.789-15.672-14.27 0-27.695 5.5664-37.766 15.672-98.039 98.027-139.27 210.97-111.96 304.69l-20.484 20.484c-7.0312 7.0312-7.0312 18.422 0 25.453s18.422 7.0312 25.453 0l28.262-28.262c4.9062-4.9062 6.5625-12.215 4.2344-18.758-29.242-82.355 8.125-186.34 99.961-278.17 6.6016-6.5898 18.047-6.5625 24.648 0.011719 6.7812 6.793 6.7812 17.855 0 24.66-45.707 45.684-73.02 102.65-76.922 160.37-4.1055 60.539 18.133 118.36 62.594 162.8 86.566 86.594 219.25 80.941 322.63-13.754 24.551-22.5 42.191-22.453 67.367 0.10938 55.824 49.992 118.16 75.191 177.35 75.191 53.27 0 104-20.41 145.14-61.547 89.496-89.484 83.473-225.42-14.316-323.21-6.793-6.793-6.793-17.855-0.011719-24.648 6.8164-6.793 17.867-6.8047 24.672-0.011718 91.824 91.824 129.18 195.83 99.926 278.21-2.3281 6.5508-0.68359 13.848 4.2344 18.758l28.262 28.246c7.0312 7.0078 18.434 7.0195 25.465-0.011719 7.0039-7.0195 7.0039-18.422-0.027344-25.453z"/>
  <path d="m603.72 707.29c170.06 0 308.41-138.35 308.41-308.41 0.003906-170.07-138.36-308.41-308.41-308.41-170.05 0-308.39 138.35-308.39 308.41 0 170.07 138.34 308.41 308.39 308.41zm-189.73-172.08c3.4062 4.2227 8.5547 6.6719 13.98 6.6719h74.531c15.84 0 28.738 12.887 28.738 28.738 0 15.852-12.887 28.754-28.738 28.754h-82.969c-35.207-32.363-61.883-73.848-76.246-120.68h33.492c18.949 0 34.355 15.395 34.355 34.332 0 2.3047-0.25391 4.7148-0.76953 7.1289-1.1289 5.3047 0.20312 10.848 3.625 15.059zm461.11-159.23h-80.902c-7.2227 0-13.754 4.3086-16.57 10.957-2.8203 6.6484-1.3906 14.34 3.6133 19.535 5.3047 5.4961 8.2305 12.672 8.2305 20.184 0 10.465-5.5547 19.883-14.867 25.188-5.6055 3.2031-9.0703 9.1445-9.0977 15.59-0.023437 6.4453 3.3945 12.406 8.9766 15.637 9.3828 5.4375 14.988 14.746 14.988 24.926 0 15.816-13.738 29.184-30 29.184h-49.477c-16.078 0-29.16-13.094-29.16-29.184 0-7.9922 3.2539-15.48 9.1797-21.086 5.3398-5.0742 7.0664-12.887 4.332-19.738-2.7344-6.8516-9.3477-11.328-16.727-11.328h-35.723c-16.078 0-29.172-13.094-29.172-29.184 0-16.078 13.094-29.16 29.172-29.16h90.887c7.332 0 13.934-4.4414 16.691-11.242 2.7617-6.8047 1.1055-14.578-4.1641-19.691-6.5391-6.3359-10.141-14.785-10.141-23.797 0-10.5 4.9453-20.184 13.586-26.578 6.2383-4.6328 8.7969-12.73 6.3711-20.113-2.4375-7.3672-9.3242-12.348-17.102-12.348h-53.652c-18.312 0-33.215-14.891-33.215-33.215s14.891-33.215 33.215-33.215h122.2c38.434 42.902 63.441 97.984 68.531 158.68zm-471.16-126.52c0 16.094-13.094 29.184-29.172 29.184h-15.406c9.2031-18.613 20.438-36.035 33.457-51.961 6.8125 5.4492 11.121 13.754 11.121 22.777zm-59.223 65.184h30.059c35.93 0 65.172-29.242 65.172-65.184 0-19.141-8.6992-36.84-22.598-48.996 48.758-45.828 114.31-74.004 186.36-74.004 61.402 0 118.12 20.438 163.73 54.84h-83.051c-38.172 0-69.215 31.043-69.215 69.215 0 38.172 31.043 69.215 69.215 69.215h18.73c-2.5781 7.2734-3.9375 15.035-3.9375 23.039 0 6.4219 0.86328 12.719 2.5547 18.73h-59.832c-35.93 0-65.172 29.23-65.172 65.16 0 35.941 29.242 65.184 65.172 65.184h4.9453c-1.332 5.2188-2.0156 10.621-2.0156 16.152 0 35.941 29.23 65.184 65.16 65.184h49.477c36.383 0 66-29.242 66-65.184 0-14.82-5.3164-29.074-14.617-40.477 9.2891-11.41 14.617-25.801 14.617-40.848 0-4.9922-0.5625-9.8984-1.6797-14.676h52.02c-6.8789 144.14-126.28 259.29-272.09 259.29-49.078 0-95.137-13.117-134.95-35.93h33.742c35.699 0 64.738-29.051 64.738-64.754 0-35.699-29.039-64.738-64.738-64.738h-55.746c-3.5898-35.438-33.613-63.191-69.996-63.191h-41.867c-2.3164-14.27-3.5742-28.883-3.5742-43.801-0.003907-29.387 4.7344-57.684 13.398-84.227z"/>
 </g>
</svg>
