<?xml version="1.0" standalone="no"?>
<!DOCTYPE svg PUBLIC "-//W3C//DTD SVG 20010904//EN"
 "http://www.w3.org/TR/2001/REC-SVG-20010904/DTD/svg10.dtd">
<svg version="1.0" xmlns="http://www.w3.org/2000/svg"
 width="1185.000000pt" height="1097.000000pt" viewBox="0 0 1185.000000 1097.000000"
 preserveAspectRatio="xMidYMid meet">

<g transform="translate(0.000000,1097.000000) scale(0.100000,-0.100000)"
fill="#000000" stroke="none">
<path d="M5459 10680 c-1197 -116 -2215 -934 -2583 -2075 -292 -907 -137
-1895 418 -2670 302 -422 741 -782 1205 -990 381 -170 740 -252 1158 -262 537
-14 982 87 1457 330 276 141 518 318 746 547 461 460 743 1014 852 1671 20
119 22 169 22 454 0 353 -10 448 -75 715 -232 946 -919 1731 -1827 2084 -225
88 -415 139 -667 177 -146 23 -555 34 -706 19z m522 -355 c157 -16 307 -41
414 -70 33 -9 65 -18 70 -19 77 -20 304 -103 332 -122 13 -8 23 -12 23 -9 0 4
14 -3 30 -15 17 -12 30 -19 30 -15 0 5 35 -13 170 -86 25 -14 97 -59 160 -99
l114 -75 -459 -6 c-266 -4 -479 -11 -505 -17 -25 -5 -46 -10 -48 -11 -1 0 -35
-17 -75 -37 -79 -39 -164 -101 -202 -146 -14 -16 -25 -26 -25 -21 0 4 -10 -9
-23 -30 -13 -21 -26 -35 -30 -32 -4 3 -5 2 -3 -1 3 -3 -8 -30 -25 -59 -16 -28
-41 -90 -55 -136 -23 -76 -25 -96 -21 -209 6 -178 46 -282 159 -421 21 -25 34
-49 30 -53 -4 -4 0 -6 8 -4 8 1 14 -2 13 -8 -1 -6 4 -11 10 -11 7 0 35 -15 62
-34 134 -94 224 -120 413 -121 78 0 144 -3 146 -7 3 -4 0 -27 -6 -52 -26 -111
-27 -226 -2 -323 l6 -24 -359 -4 c-355 -4 -359 -4 -429 -30 -111 -40 -254
-142 -301 -214 -98 -150 -128 -241 -127 -389 0 -124 15 -186 71 -301 89 -180
296 -319 493 -330 113 -7 111 -6 103 -51 -21 -118 4 -285 59 -395 16 -32 29
-61 31 -65 1 -4 11 -17 22 -29 81 -88 116 -124 120 -124 3 0 24 -14 48 -31 45
-33 78 -49 172 -82 57 -21 77 -22 420 -22 l360 0 80 27 c44 15 114 49 155 75
41 27 78 47 83 45 5 -1 6 2 3 7 -3 5 7 20 22 33 29 25 96 120 125 178 57 113
76 299 43 415 -22 76 -54 155 -73 176 -8 9 -15 26 -16 37 0 12 -6 18 -14 15
-23 -9 -14 26 20 80 41 65 72 138 84 197 15 77 20 149 13 207 -5 37 -8 69 -6
70 3 4 488 5 491 1 2 -2 -2 -66 -10 -143 -27 -271 -106 -563 -217 -805 -17
-36 -33 -67 -37 -70 -3 -3 -6 -9 -6 -15 0 -17 -77 -155 -84 -151 -4 3 -7 -4
-8 -13 -2 -26 -119 -203 -204 -308 -101 -126 -231 -264 -328 -346 -46 -40 -89
-77 -95 -83 -25 -23 -222 -164 -230 -164 -3 0 -25 -13 -49 -30 -48 -32 -63
-37 -51 -18 4 7 3 8 -5 4 -6 -4 -9 -11 -7 -15 5 -7 -64 -48 -72 -43 -3 2 -8 0
-11 -5 -12 -16 -131 -74 -141 -68 -6 3 -10 2 -10 -3 0 -9 -39 -28 -70 -34 -8
-2 -17 -6 -20 -9 -11 -12 -150 -61 -290 -102 -79 -23 -226 -55 -285 -61 -27
-3 -77 -11 -110 -17 -37 -8 -151 -13 -295 -13 -236 0 -382 13 -535 49 -33 8
-72 16 -86 19 -60 10 -186 49 -217 67 -18 10 -30 14 -26 7 5 -8 2 -9 -12 -3
-10 4 -60 24 -111 43 -51 19 -90 39 -87 43 3 5 -2 6 -10 3 -10 -4 -16 -1 -16
7 0 7 -3 9 -6 6 -4 -4 -24 2 -45 13 -22 11 -58 30 -82 42 -96 49 -97 48 113
48 107 0 221 4 252 10 58 9 168 55 220 92 16 11 33 16 39 12 7 -4 9 -3 6 3 -9
15 49 67 64 58 8 -5 10 -4 5 4 -4 6 8 30 27 54 91 111 142 253 142 397 0 132
-31 232 -111 357 -18 28 -29 54 -26 58 4 4 2 5 -3 3 -6 -2 -32 18 -59 43 -63
61 -175 124 -262 149 -62 18 -100 20 -386 20 -183 0 -319 4 -323 9 -3 5 -10
33 -15 61 -38 198 -188 392 -369 477 -31 14 -59 31 -63 37 -4 6 -8 8 -8 5 0
-3 -35 2 -77 12 -65 16 -119 19 -319 19 l-241 0 -17 104 c-18 120 -22 499 -6
606 6 36 13 88 16 115 3 28 8 57 11 65 3 8 7 22 8 30 10 75 63 280 76 296 5 6
6 14 2 17 -3 4 74 7 173 7 245 0 339 22 479 115 33 21 64 38 68 37 5 -1 6 2 3
7 -3 5 16 29 42 54 26 24 48 51 50 58 2 8 9 21 16 29 25 29 52 86 65 133 8 26
17 47 21 47 4 0 6 69 5 153 -2 124 -6 162 -22 207 -35 96 -77 165 -142 232
-44 46 -44 48 -26 68 10 11 22 20 28 20 5 0 18 12 29 26 12 14 27 23 35 20 8
-3 12 -2 9 3 -15 23 362 289 387 274 6 -3 7 -1 4 4 -4 6 19 22 51 37 31 15 64
31 72 36 38 24 298 131 365 151 389 114 707 148 1056 114z"/>
<path d="M2116 6184 c-117 -28 -185 -75 -331 -227 -479 -496 -821 -1056 -983
-1607 -116 -396 -134 -812 -50 -1170 12 -52 23 -98 23 -101 0 -8 -203 -215
-529 -539 l-246 -244 0 -233 c0 -128 3 -233 7 -233 3 0 106 98 227 218 122
120 370 363 553 540 327 318 373 371 373 429 0 11 -14 66 -30 122 -60 201 -73
296 -73 521 1 266 30 436 123 710 101 300 291 648 508 930 72 94 174 222 182
230 3 3 57 61 120 129 144 156 177 181 241 181 57 0 88 -11 120 -42 42 -40 52
-72 46 -138 -5 -59 -7 -63 -75 -135 -275 -288 -489 -635 -605 -975 -68 -202
-117 -492 -117 -695 0 -241 62 -550 155 -770 218 -517 667 -955 1175 -1148
242 -91 443 -127 715 -127 211 0 336 15 540 66 169 43 423 143 565 223 39 23
74 41 76 41 2 0 30 16 61 36 167 105 291 198 488 368 125 107 205 149 297 154
117 7 201 -35 378 -187 458 -396 945 -629 1450 -692 119 -15 365 -15 491 -1
438 52 841 254 1179 592 242 242 440 559 520 835 112 384 125 711 44 1075
-100 450 -330 854 -710 1248 -48 50 -55 144 -15 205 43 65 157 90 225 48 33
-21 147 -140 282 -296 363 -419 612 -861 733 -1299 67 -244 76 -312 76 -571
-1 -249 -14 -344 -71 -522 -50 -150 -34 -182 197 -403 77 -74 291 -283 475
-465 184 -181 466 -459 627 -616 l292 -286 3 235 2 235 -621 618 c-584 582
-621 621 -614 647 4 15 18 79 31 142 163 785 -161 1713 -889 2547 -197 226
-292 315 -377 356 -41 19 -99 40 -128 46 -261 54 -530 -110 -606 -368 -9 -32
-16 -91 -16 -141 0 -162 46 -260 198 -423 395 -424 596 -893 596 -1392 0 -171
-11 -262 -50 -419 -153 -611 -685 -1128 -1287 -1250 -572 -117 -1229 91 -1782
564 -137 118 -207 168 -295 212 -225 114 -446 108 -674 -19 -68 -38 -128 -84
-313 -242 -200 -170 -510 -351 -741 -434 -231 -83 -422 -117 -654 -117 -463 0
-854 175 -1200 538 -127 134 -215 261 -298 427 -123 249 -159 397 -167 681 -4
148 -2 214 11 300 32 209 94 401 191 594 103 205 204 348 390 555 68 75 129
154 146 187 103 204 65 442 -96 603 -130 130 -312 182 -489 139z"/>
<path d="M3275 4944 c-388 -69 -734 -326 -914 -681 -308 -605 -87 -1344 503
-1683 691 -397 1571 -69 1840 688 88 246 92 559 10 808 -147 452 -534 788
-1001 869 -107 19 -330 18 -438 -1z m385 -350 c182 -34 339 -114 468 -238 74
-70 135 -147 179 -226 30 -53 70 -148 78 -187 2 -10 10 -47 19 -83 9 -38 16
-110 16 -175 0 -252 -111 -503 -299 -677 -269 -248 -671 -314 -997 -164 -149
69 -288 183 -379 311 -195 274 -223 641 -73 939 89 176 229 320 403 411 173
92 394 126 585 89z"/>
<path d="M7695 4951 c-84 -14 -216 -51 -290 -82 -484 -201 -795 -665 -795
-1185 0 -543 356 -1036 872 -1208 339 -113 729 -75 1033 100 317 184 524 462
617 829 20 78 23 116 23 280 0 173 -3 199 -27 295 -63 251 -165 430 -347 610
-177 176 -368 283 -610 342 -94 23 -380 34 -476 19z m345 -356 c500 -84 843
-566 755 -1063 -50 -288 -234 -537 -490 -665 -100 -50 -141 -64 -254 -87 -124
-25 -213 -25 -333 -1 -366 76 -632 328 -729 693 -30 111 -32 298 -6 408 46
185 125 329 246 451 222 221 509 315 811 264z"/>
<path d="M5626 2306 c-22 -8 -69 -44 -105 -79 -115 -113 -263 -239 -401 -343
-36 -26 -67 -51 -70 -54 -12 -14 -273 -182 -375 -240 -402 -231 -811 -352
-1190 -354 -189 0 -396 33 -554 89 -60 21 -139 19 -176 -4 -34 -21 -161 -147
-837 -831 l-480 -485 238 -3 239 -2 375 372 c206 205 425 422 487 482 l112
110 90 -22 c239 -58 561 -73 806 -38 610 86 1246 408 1834 929 l74 66 91 -81
c830 -733 1760 -1060 2541 -892 66 14 134 28 150 31 29 4 46 -11 270 -239 132
-134 341 -350 465 -481 l224 -237 233 0 c128 0 233 4 233 8 0 5 -17 25 -37 44
-34 31 -236 241 -518 538 -54 58 -138 146 -186 195 -47 50 -108 115 -135 145
-27 30 -125 132 -218 226 -152 155 -174 174 -215 184 -39 9 -57 7 -116 -11
-192 -57 -291 -76 -505 -94 -163 -14 -508 40 -718 111 -461 156 -919 443
-1356 847 -54 51 -109 98 -122 105 -37 20 -105 24 -148 8z"/>
</g>
</svg>
