<?xml version="1.0" encoding="UTF-8"?>
<svg width="1200pt" height="1200pt" version="1.1" viewBox="0 0 1200 1200" xmlns="http://www.w3.org/2000/svg">
 <g>
  <path d="m602.64 255.12c44.762 0 81.238 36.48 81.238 81.238 0 44.762-36.48 81.238-81.238 81.238-44.762 0-81.238-36.48-81.238-81.238-0.003906-44.758 36.477-81.238 81.238-81.238m0-12c-51.48 0-93.238 41.762-93.238 93.238 0 51.48 41.762 93.238 93.238 93.238 51.48 0 93.238-41.762 93.238-93.238 0-51.48-41.758-93.238-93.238-93.238z"/>
  <path d="m472.8 246.48c-2.0391 0-4.0781-0.71875-5.7617-2.0391l-92.641-77.398c-3.8398-3.2383-4.3203-8.8789-1.1992-12.719 3.2383-3.8398 8.8789-4.3203 12.719-1.1992l92.641 77.398c3.8398 3.2383 4.3203 8.8789 1.1992 12.719-1.7969 2.1562-4.3164 3.2383-6.957 3.2383z"/>
  <path d="m528.72 195.36c-3.1211 0-6.1211-1.5586-7.8008-4.5586l-54.84-94.922c-2.5195-4.3203-0.96094-9.8398 3.2383-12.238 4.3203-2.5195 9.8398-0.96094 12.238 3.2383l54.84 94.922c2.5195 4.3203 0.96094 9.8398-3.2383 12.238-1.4375 0.83984-2.9961 1.3203-4.4375 1.3203z"/>
  <path d="m600 182.28c-4.9219 0-9-4.0781-9-9v-104.28c0-4.9219 4.0781-9 9-9s9 4.0781 9 9v104.28c0 4.918-4.0781 9-9 9z"/>
  <path d="m671.28 195.36c-1.5586 0-3.1211-0.35938-4.4414-1.1992-4.3203-2.5195-5.7617-8.0391-3.2383-12.238l54.84-94.922c2.5195-4.3203 8.0391-5.7617 12.238-3.2383 4.3203 2.5195 5.7617 8.0391 3.2383 12.238l-54.84 94.922c-1.5586 2.7578-4.6797 4.4375-7.7969 4.4375z"/>
  <path d="m727.2 246.48c-2.5195 0-5.1602-1.0781-6.9609-3.2383-3.1211-3.8398-2.6406-9.4805 1.1992-12.719l92.641-77.398c3.8398-3.2383 9.4805-2.6406 12.719 1.1992 3.1211 3.8398 2.6406 9.4805-1.1992 12.719l-92.641 77.398c-1.6758 1.4375-3.7188 2.0391-5.7578 2.0391z"/>
  <path d="m672 1140c-29.762 0-54-24.238-54-54v-282.24h-36v282.24c-2.2812 71.398-105.72 71.281-108 0v-537.12l-205.8-234.6c-14.879-16.801-13.801-42.121 2.3984-57.719 16.441-15.84 42.84-15.359 58.801 0.96094l184.8 188.88h171.6l184.8-188.88c15.961-16.32 42.359-16.68 58.801-0.96094 16.199 15.602 17.16 40.922 2.3984 57.719l-205.8 234.6v537.12c0 29.762-24.238 54-54 54zm-102-348.24h60v294.24c1.4414 55.441 82.559 55.32 84 0v-541.56l208.8-237.96c10.559-12 9.8398-30.121-1.6797-41.16-11.762-11.281-30.48-11.039-41.879 0.60156l-188.4 192.48h-181.68l-188.4-192.48c-11.398-11.641-30.238-11.879-41.879-0.60156-11.52 11.039-12.238 29.16-1.6797 41.16l208.8 237.96-0.003906 541.56c1.4414 55.441 82.559 55.32 84 0z"/>
 </g>
</svg>
