<?xml version="1.0" encoding="UTF-8"?>
<svg width="1200pt" height="1200pt" version="1.1" viewBox="0 0 1200 1200" xmlns="http://www.w3.org/2000/svg">
 <path d="m1133.2 908.98-18.645-667.67-0.19922-10.34-10.336 0.90234-58.5 5.5195-0.19922-8.3086-0.16797-10.703-10.703 1.2969-71.598 2.7578 0.36719 19.551 62.922-1.6641c9.4062 364.3 14.762 579.26 15.859 624.69-72.164 7.2109-146.72 20.113-220.34 37.098-57.938 13.293-115.34 29.32-170.88 47.062-10.34 3.3242-21.039 6.8164-31.746 10.336l-4.0547 1.2969c5.5508-7.5742 47.797-43.375 65.711-55.371 27.688-18.449 57.035-34.703 87.652-47.996 1.2969-0.73438 2.7617-1.2969 4.2539-1.832 60.895-26.195 126.41-41.715 193.78-45.402l9.4062-0.53516-0.19922-9.4375-12.73-571.54-0.36328-19.547-0.92969-39.293-0.19922-9.2383-9.0391-0.36328c-74.191-2.5938-145.96 15.125-208.34 49.629-57.625 31.91-107.37 77.906-143.84 135.02-36.473-57.117-86.242-103.09-143.84-135.02-62.391-34.504-134.16-52.223-208.34-49.629l-9.2383 0.36328-0.16797 9.2383-0.93359 39.293-0.25 13.293-71.711-2.7578-10.535-1.2969-0.36328 10.703-0.17188 8.3086-58.301-5.5195-10.34-0.90234-0.36328 10.34-18.676 667.67-0.19531 8.1133 7.9414 1.6602 516.36 109.79 8.4766 1.7773v0.28125l0.64844-0.14062 0.64844 0.14062v-0.28125l8.4766-1.7773 516.17-109.79 7.9414-1.6602zm-523.91-302.84v-238.79c35.066-59.797 85.258-107.76 144.12-140.24 56.836-31.375 121.62-48.359 188.96-47.43l13.66 611.76c-66.441 4.6172-131.02 20.477-191.19 46.332-56.273 24.168-108.89 57.203-155.56 97.988zm-351.57-426.46c67.371-0.92969 132.32 16.055 189.16 47.43 58.867 32.477 108.86 80.473 144.12 140.24v568.39c-46.699-40.785-99.285-73.824-155.76-97.988-60.16-25.828-124.75-41.715-190.99-46.336zm-83.793 60.695 63.004 1.6641-12.25 558.25-0.36719 9.4336 9.6055 0.53516c67.176 3.6914 132.69 19.184 193.78 45.406 1.4648 0.5625 2.7617 1.0977 4.2539 1.8281 30.445 13.297 59.793 29.547 87.648 47.996 17.914 12 59.996 47.797 65.516 55.375l-3.8867-1.2969c-10.902-3.4922-21.406-7.0117-31.941-10.336-55.371-17.719-112.94-33.773-170.88-47.066-73.625-16.984-148.01-29.883-220.17-37.094 1.125-45.402 6.2812-260.39 15.688-624.69zm426.2 770.17-513.49-109.11 18.082-649.05 49.262 4.6211c-10.336 400.82-15.492 616.01-15.492 616.55l-0.16797 9.043 9.0391 0.92969c73.992 7.0117 150.77 20.109 226.79 37.656 72.16 16.59 143.76 37.266 211.5 60.527 0.92969 0.19922 1.6602 0.56641 2.3945 0.73438l11.434 3.9688v0.45312l0.64844-0.22656 0.64844 0.22656v-0.45312l11.266-3.9688c0.92969-0.16797 1.6641-0.5625 2.3945-0.73438 67.91-23.262 139.34-43.91 211.67-60.527 76.02-17.547 152.8-30.645 226.79-37.656l9.043-0.92969-0.36719-9.043c0-0.53516-5.1836-215.72-15.492-616.55l49.262-4.6211 18.082 649.05z"/>
</svg>
