<?xml version="1.0" encoding="UTF-8"?>
<svg width="1200pt" height="1200pt" version="1.1" viewBox="0 0 1200 1200" xmlns="http://www.w3.org/2000/svg">
 <g>
  <path d="m1180 962.06-56.25-156.75c21.531-45.348 32.68-94.926 32.625-145.12-0.027344-70.43-21.957-139.11-62.746-196.52-40.789-57.414-98.418-100.73-164.91-123.93-66.492-23.211-138.56-25.172-206.21-5.6094-0.69531-90.008-37.121-176.05-101.26-239.21-64.137-63.152-150.73-98.238-240.74-97.543s-176.05 37.121-239.21 101.26c-63.152 64.137-98.238 150.73-97.543 240.74-0.1875 50.191 10.898 99.789 32.438 145.12l-56.25 156.94c-1.043 3.2227-1.1914 6.668-0.43359 9.9688 0.76172 3.3047 2.4023 6.3359 4.7461 8.7812 2.5312 2.5195 5.7266 4.2617 9.2148 5.0273 3.4883 0.76172 7.1211 0.51562 10.473-0.71484l140.81-50.438c57.691 41.93 127.24 64.391 198.56 64.125 31.727-0.10156 63.281-4.6484 93.75-13.5 1.2305 89.262 37.543 174.45 101.09 237.15 63.543 62.699 149.21 97.875 238.48 97.914 71.258 0.23828 140.74-22.223 198.38-64.125l141 50.438c3.2383 1.0195 6.6953 1.1367 9.9961 0.34375 3.3047-0.79297 6.3281-2.4648 8.7539-4.8438 2.6445-2.4102 4.543-5.5273 5.4727-8.9844 0.93359-3.4531 0.85547-7.1016-0.22266-10.516zm-980.81-383.06c-5.0234-3.8516-11.652-4.9102-17.625-2.8125l-112.5 40.5 45.375-126.94c2.0312-4.7266 2.0312-10.086 0-14.812-21.68-41.906-33.059-88.379-33.188-135.56 0.078125-68.094 23.191-134.16 65.582-187.45 42.387-53.289 101.55-90.672 167.89-106.07 66.328-15.398 135.91-7.9062 197.45 21.262 61.531 29.168 111.38 78.293 141.45 139.39 30.07 61.098 38.586 130.57 24.164 197.11-14.422 66.551-50.93 126.26-103.59 169.43-52.66 43.168-118.38 67.25-186.46 68.328-68.086 1.082-134.54-20.902-188.54-62.375zm819 318.75c-6.0273-2.168-12.746-1.1055-17.812 2.8125-52.555 40.777-117.23 62.82-183.75 62.625-80.062-0.097656-156.82-31.961-213.41-88.594-56.598-56.633-88.41-133.41-88.461-213.47v-7.875c56.125-23.688 104.87-62 141.15-110.94 36.277-48.941 58.758-106.72 65.102-167.31 75.863-25.293 158.66-19.43 230.2 16.297 71.539 35.727 125.97 98.398 151.33 174.24 25.359 75.836 19.57 158.64-16.094 230.21-1.9805 4.6758-1.9805 9.9492 0 14.625l44.812 127.12z"/>
  <path d="m816.66 525c-22.527 0-44.145 8.9102-60.129 24.789-15.98 15.875-25.035 37.434-25.184 59.961 0 6.6992 3.5742 12.887 9.375 16.238 5.8008 3.3477 12.949 3.3477 18.75 0 5.8008-3.3516 9.375-9.5391 9.375-16.238 0.050781-12.668 5.125-24.801 14.113-33.73 8.9883-8.9297 21.152-13.926 33.824-13.895 12.668 0.035156 24.809 5.0938 33.75 14.07 8.9414 8.9766 13.953 21.133 13.938 33.805-0.015625 12.668-5.0625 24.816-14.027 33.77s-21.117 13.98-33.785 13.98c-4.9727 0-9.7422 1.9766-13.258 5.4922-3.5156 3.5156-5.4922 8.2852-5.4922 13.258v31.125c0 6.6992 3.5742 12.887 9.375 16.238 5.8008 3.3477 12.949 3.3477 18.75 0 5.8008-3.3516 9.375-9.5391 9.375-16.238v-13.875c27.852-5.9297 50.91-25.359 61.469-51.805 10.559-26.445 7.2305-56.414-8.8789-79.898-16.105-23.48-42.867-37.379-71.34-37.047z"/>
  <path d="m383.34 204c-22.594 0-44.266 8.9609-60.258 24.922-15.996 15.957-25.004 37.609-25.055 60.203 0 6.6992 3.5742 12.887 9.375 16.238 5.8008 3.3477 12.949 3.3477 18.75 0 5.8008-3.3516 9.375-9.5391 9.375-16.238 0.14844-12.648 5.3008-24.719 14.332-33.574s21.203-13.773 33.852-13.676c12.648 0.10156 24.742 5.207 33.633 14.203s13.855 21.148 13.805 33.793c-0.046875 12.648-5.1055 24.762-14.066 33.688-8.9609 8.9297-21.094 13.941-33.742 13.941-4.9727 0-9.7422 1.9766-13.258 5.4922-3.5156 3.5156-5.4922 8.2852-5.4922 13.258v31.125c0 6.6992 3.5742 12.887 9.375 16.238 5.8008 3.3477 12.949 3.3477 18.75 0 5.8008-3.3516 9.375-9.5391 9.375-16.238v-14.438c27.852-5.9297 50.91-25.359 61.469-51.805 10.559-26.445 7.2305-56.414-8.8789-79.898-16.105-23.48-42.867-37.379-71.34-37.047z"/>
  <path d="m370.03 443.06c-3.4648 3.4922-5.418 8.207-5.4375 13.125 0 6.6992 3.5742 12.887 9.375 16.238 5.8008 3.3477 12.949 3.3477 18.75 0 5.8008-3.3516 9.375-9.5391 9.375-16.238-0.019531-4.918-1.9727-9.6328-5.4375-13.125-3.5195-3.5508-8.3125-5.5469-13.312-5.5469s-9.793 1.9961-13.312 5.5469z"/>
  <path d="m300.09 745.31c-46.496 1.0391-90.984 19.133-125.01 50.84-34.023 31.707-55.203 74.816-59.508 121.12-4.3086 46.309 8.5586 92.582 36.152 130.02 27.59 37.438 67.98 63.426 113.49 73.02l32.062 68.062c1.5195 3.1914 3.9102 5.8867 6.8945 7.7773 2.9883 1.8906 6.4453 2.8984 9.9805 2.9102 3.5664 0.027344 7.0664-0.96484 10.086-2.8594 3.0234-1.8945 5.4414-4.6094 6.9766-7.8281l36.375-77.062c40.766-16.246 74.641-46.117 95.859-84.531 21.215-38.418 28.461-82.996 20.5-126.15-7.957-43.156-30.629-82.219-64.152-110.54-33.523-28.32-75.828-44.145-119.71-44.777zm108.38 297.19c-16.617 17.055-37.055 29.91-59.625 37.5-4.8984 1.6445-8.9023 5.2422-11.062 9.9375l-22.875 48.188-18.75-41.062c-2.7305-5.7148-8.1602-9.6641-14.438-10.5-45.723-5.9844-86.262-32.391-110.21-71.793-23.953-39.406-28.73-87.547-12.988-130.89 15.738-43.344 50.297-77.203 93.953-92.055 43.652-14.852 91.691-9.0898 130.6 15.66 38.906 24.754 64.477 65.82 69.527 111.66 5.0469 45.836-10.977 91.484-43.566 124.11z"/>
  <path d="m829.97 763.69c-3.5195-3.5508-8.3125-5.5469-13.312-5.5469s-9.793 1.9961-13.312 5.5469c-1.7539 1.7461-3.1016 3.8594-3.9375 6.1875-0.96094 2.2539-1.4688 4.6758-1.5 7.125-0.027344 4.9961 1.9375 9.793 5.457 13.336 3.5234 3.5391 8.3125 5.5273 13.309 5.5234 4.9922-0.003906 9.7812-2 13.297-5.5469 3.5078-3.5391 5.4648-8.3281 5.4375-13.312 0.0625-2.4609-0.44922-4.8984-1.5-7.125-1.0195-2.2344-2.3477-4.3164-3.9375-6.1875z"/>
  <path d="m345.47 885.19h-89.25c-6.6992 0-12.887 3.5742-16.238 9.375-3.3477 5.8008-3.3477 12.949 0 18.75 3.3516 5.8008 9.5391 9.375 16.238 9.375h89.25c6.6992 0 12.887-3.5742 16.238-9.375 3.3477-5.8008 3.3477-12.949 0-18.75-3.3516-5.8008-9.5391-9.375-16.238-9.375z"/>
  <path d="m300.09 962.06h-43.875c-6.6992 0-12.887 3.5742-16.238 9.375-3.3477 5.8008-3.3477 12.949 0 18.75 3.3516 5.8008 9.5391 9.375 16.238 9.375h43.875c6.6992 0 12.887-3.5742 16.238-9.375 3.3477-5.8008 3.3477-12.949 0-18.75-3.3516-5.8008-9.5391-9.375-16.238-9.375z"/>
 </g>
</svg>
