<?xml version="1.0" encoding="UTF-8"?>
<svg width="1200pt" height="1200pt" version="1.1" viewBox="0 0 1200 1200" xmlns="http://www.w3.org/2000/svg">
 <g>
  <path d="m799.42 960.46c-5.3828-2.0078-10.945-3.4922-16.613-4.4297-3.3867-0.375-6.8047 0.31641-9.7773 1.9844-2.9727 1.6641-5.3477 4.2188-6.7969 7.3047-4.6523 9.0508-7.875 18.77-9.5469 28.809-0.73438 2.7852-0.71094 5.7188 0.070312 8.4922 0.78516 2.7734 2.2969 5.2852 4.3828 7.2773 5.7422 4.0273 14.285 1.0117 21.027-2.4258h0.003906c12.184-6.2031 23.77-13.52 34.609-21.848 2.0234-1.2617 3.6055-3.1211 4.5234-5.3242 0.41406-1.9922 0.027343-4.0664-1.0859-5.7734-5.0234-7.0273-12.402-12.02-20.797-14.066z"/>
  <path d="m242.66 576.26c1.1562-5.1914 0.80078-10.602-1.0234-15.598-1.8242-4.9922-5.043-9.3594-9.2773-12.578-7.1719-8.3398-14.824-16.25-22.918-23.691-4.1133-2.6562-9.168-3.418-13.879-2.0898-4.7266 0.98047-9.2383 2.9141-14.016 3.6289-7.1055-0.19141-14.199 0.68359-21.047 2.5977-7.0195 4.3594-11.355 11.973-11.523 20.23-1.2695 7.3984 0.83984 14.977 5.75 20.656 4.6094 3.9258 10.504 6.0234 16.559 5.8906 5.9922 0.21094 11.98-0.68359 17.973-0.48438h-0.003907c6.4062 0.21875 12.711 1.6836 18.555 4.3125 6.1523 3.9492 13.121 6.4609 20.383 7.3398 3.1328-0.15234 6.1562-1.1953 8.7188-3.0039s4.5586-4.3086 5.75-7.2109z"/>
  <path d="m195.47 596.69c-5.2109-2.2148-10.871-3.1758-16.527-2.8125-3.9414-0.070312-7.6211 1.9766-9.6406 5.3633-2.0195 3.3828-2.0742 7.5938-0.14062 11.031 3.832 6.9023 10.746 11.547 18.586 12.48 3.1836 0.66016 6.4922 0.30078 9.4648-1.0195 4.3945-2.6289 6.7461-7.6719 5.9375-12.734-0.082032-2.543-0.83203-5.0234-2.1836-7.1875-1.3477-2.1602-3.2422-3.9297-5.4961-5.1211z"/>
  <path d="m164.68 510.26c1.8945-0.76172 3.5859-1.9492 4.9492-3.4688 4.5273-4.7188 10.164-12.172 6.6133-18.906v-0.003906c-1.5664-2.6094-4.5469-4.0312-7.5625-3.6055-2.9648 0.48437-5.6328 2.082-7.4609 4.4648-1.7969 2.3711-3.1953 5.0234-4.1406 7.8438-0.98047 2.2461-1.5078 4.6641-1.5547 7.1172-0.023437 2.4922 1.2031 4.8281 3.2656 6.2227 1.8203 0.97266 3.9727 1.0938 5.8906 0.33594z"/>
  <path d="m186.48 503.59c0.38672 1.4766 1.4102 2.7031 2.793 3.3438 2.6016 0.58984 5.3125-0.34375 7.0039-2.4102 4.4844-4.3008 7.2969-10.059 7.9336-16.238 0.24219-1.5156-0.28516-3.0508-1.4062-4.0977-2.8711 0.015625-5.7188 0.57422-8.3828 1.6445-4.7656 2.7852-7.8203 7.7734-8.1367 13.285-0.23828 1.4883-0.17188 3.0117 0.19531 4.4727z"/>
  <path d="m212.07 510.38c1.4766 1.0547 3.4336 1.1367 4.9961 0.21484 5.4102-2.8164 9.1211-8.0742 9.9648-14.113 0.45312-2.4258 1.5469-6.1328-1.0898-7.707v-0.003906c-1.8281-1.4023-4.0977-2.1055-6.3984-1.9805-2.2812 0.68359-4.1523 2.3203-5.1367 4.4883-2.7617 4.8516-3.9688 10.438-3.457 15.996 0.003906 1.1328 0.39844 2.2305 1.1211 3.1055z"/>
  <path d="m233.42 521.05c2.1211 1.457 4.8867 1.5742 7.1211 0.29297 5.6953-2.957 9.6758-8.4141 10.746-14.738 0.5625-2.5977 0.48047-5.2891-0.23437-7.8477-2.7461-2.5039-6.7188-3.125-10.094-1.582-0.83203 0.55469-1.5703 1.2305-2.1953 2.0078-3.7383 4.3438-6.125 9.6836-6.8711 15.367-0.55859 2.2852 0.011719 4.7031 1.5273 6.5z"/>
  <path d="m264.07 529.64c-2.2773-0.14844-4.4805 0.82422-5.9062 2.6055-3.9102 3.9961-6.2266 9.2812-6.5156 14.863-0.35547 2.5703 0.49609 5.1602 2.3164 7.0117 2.1719 1.5156 5.043 1.5742 7.2734 0.14062 2.1562-1.4453 3.8711-3.4609 4.9453-5.8281 2.4414-4.8359 3.6602-10.199 3.5469-15.617-2.0625-0.71094-3.5234-2.7578-5.6602-3.1758z"/>
  <path d="m269.01 500.19c-2.4922 6.5625-4.5273 13.285-6.0898 20.129 1.3008 1.7383 2.6328 1.7383 3.3242 1.1016l-0.003906-0.003907c0.625-0.71484 1.0039-1.6055 1.0938-2.5508l1.0625-5.4062v0.003907c0.89844-3.9023 1.4102-7.8828 1.5312-11.887 0-0.63672-0.29297-1.5078-0.91797-1.3867z"/>
  <path d="m251.11 487.33c0.89062-0.91016 1.5352-2.0312 1.875-3.2578 2.5391-6.8789 4.1484-14.066 4.7852-21.371-3.8633 6.5625-7.2891 13.379-10.25 20.398-0.60547 1.4883-1.082 3.4375 0.125 4.5039v-0.003907c1.0703 0.75391 2.5234 0.64063 3.4648-0.26953z"/>
  <path d="m226.36 477.76c0.40625-0.21094 0.75781-0.51953 1.0234-0.89453 1.5195-2.1719 2.6367-4.6016 3.293-7.1719 1.5977-5.0508 3.1016-10.133 5.0156-16.754-3.3867 4.9375-6.7773 9.8867-9.6992 15.113l-0.003906-0.003907c-1.0391 1.7109-1.832 3.5586-2.3516 5.4922-0.30078 1.0078-0.25391 2.0859 0.14062 3.0586 0.44141 0.98438 1.5508 1.4844 2.582 1.1602z"/>
  <path d="m201.64 474.79c1.9375-1.2539 3.3945-3.1289 4.1328-5.3164 2.4531-5.6367 4.5273-11.434 6.207-17.348-3.5312 4.9844-7.0625 9.9648-10.59 14.949-0.96484 1.2734-1.8086 2.6406-2.5117 4.0742-0.57422 1.2734-0.77344 3.0938 0.44141 3.7852 0.75 0.33594 1.6172 0.28125 2.3203-0.14453z"/>
  <path d="m176.72 477.18c1.4727 0.55078 2.8438-0.96875 3.6719-2.3047 3.1758-5.1328 6.0703-10.441 9.2617-16.906-4.832 4.1719-9.1875 8.8672-12.988 13.996-0.625 0.79688-1.0508 1.7305-1.2344 2.7266-0.16406 1.0234 0.35938 2.0312 1.2891 2.4883z"/>
  <path d="m306.65 720.57c-2.5312-3.875-4.0195-8.3984-6.3281-12.426v0.003907c-2.0039-4.2148-5.8047-7.2969-10.344-8.3867-10.523-0.60156-21.078-0.56641-31.602 0.10547-5.1523-0.70703-10.402 0.054687-15.141 2.1992-4.7383 2.1484-8.7734 5.5898-11.641 9.9297-1.3281 2.7695-1.8555 5.8555-1.5234 8.9141 0.33594 3.0547 1.5195 5.9531 3.418 8.3711 5.25 4.5312 11.508 7.7422 18.25 9.3672 5.6172 2.3281 10.695 5.7891 14.918 10.16 3.9609 4.1016 7.1367 8.9609 11.105 13.055 3.7461 4.3711 9.043 7.1172 14.777 7.6641 7.3516-0.51953 14.105-4.2344 18.48-10.168 5.8125-5.7812 8.4805-14.008 7.1758-22.102-1.8477-6.6758-7.8164-10.977-11.547-16.688z"/>
  <path d="m247.02 759.48c-4.7891-1.543-10.039-0.37891-13.723 3.0508-4.1523 2.9219-6.2383 7.9805-5.3555 12.98 0.91797 2.9766 2.7812 5.5742 5.3008 7.4023 5.7266 4.918 13.543 6.6289 20.801 4.5547 1.832-0.55859 3.5156-1.5391 4.9102-2.8555 3.6641-4.3906 3.918-10.699 0.61719-15.371-3.3203-4.2344-7.6289-7.5859-12.551-9.7617z"/>
  <path d="m328.65 721.71c0.65625 1.8555 2.1328 3.3086 4 3.9375 2.375 0.48047 4.832-0.26172 6.543-1.9766 1.7344-1.7305 3.1289-3.7656 4.1172-6.0039 1.418-2.6094 2.4258-5.4258 2.9883-8.3398 0.55859-2.8828 0.003906-5.8672-1.5469-8.3594-1.6172-2.4258-4.582-3.5742-7.4102-2.8672-7.0938 2.1289-8.8516 11.258-9.3516 17.711v0.003906c-0.22656 1.9883 0 4.0039 0.66016 5.8945z"/>
  <path d="m327.22 683.82c-0.91797-2.6016-2.332-5.0039-4.1602-7.0664-1.5-0.054687-2.9336 0.625-3.8359 1.8281-4.0273 4.6992-6.3516 10.621-6.5977 16.809-0.085937 2.582 0.48438 5.5781 2.7344 6.6172 1.3711 0.53516 2.9102 0.41406 4.1797-0.32812 1.2891-0.75391 2.4219-1.7539 3.332-2.9414 3.7461-3.9961 5.3594-9.5391 4.3477-14.918z"/>
  <path d="m298.37 688.24c1.1055-0.097656 2.1445-0.57422 2.9414-1.3438 4.332-3.4961 7.5547-8.1758 9.2734-13.473 0.92969-2.1523 0.91016-4.5938-0.050781-6.7305-1.3711-1.7109-3.3359-2.8398-5.5-3.1641-2.8086-0.77734-4.7734 2.5508-6.2266 4.543v-0.003906c-3.7852 4.7109-5.1797 10.906-3.7773 16.785 0.51953 1.6406 1.6406 3.3516 3.3398 3.3867z"/>
  <path d="m276.08 657.88c-3.8438 5.0625-5.2109 11.586-3.7266 17.77 0.71875 2.3359 2.3438 4.6836 4.7461 4.8398v-0.003906c2.3047-0.19141 4.3906-1.4492 5.6367-3.3984 3.6016-4.4375 5.9023-9.7891 6.6523-15.453 0.15625-0.97266 0.17188-1.9609 0.039063-2.9375-0.99219-3.4141-4.0195-5.8359-7.5664-6.0547-2.3086 1.2734-4.2891 3.0664-5.7812 5.2383z"/>
  <path d="m245.53 662.89c-3.9727 3.6719-7.0391 8.2148-8.9492 13.277-1.0078 2.3672-1.3633 4.9648-1.0312 7.5156 0.35156 2.5195 2.2461 4.543 4.7383 5.0508 2.543-0.015625 4.9375-1.1914 6.5039-3.1953 3.8242-4.0469 6.125-9.2969 6.5117-14.852 0.39062-2.1836-0.31641-4.418-1.8906-5.9766-1.6641-1.2266-4.0625-0.85156-5.8828-1.8203z"/>
  <path d="m260.26 650.5-3.1992 4.4766c-0.62109 0.71094-1.0195 1.5938-1.1367 2.5312-0.015625 0.92969 0.83203 1.875 2.9062 1.5938 3.9141-5.8242 7.4414-11.898 10.559-18.184-0.3125-0.52734-1.1211-0.13281-1.5781 0.30469-2.8008 2.8516-5.3281 5.957-7.5508 9.2773z"/>
  <path d="m291.17 641.15c-0.66406 1.082-1.0547 2.3086-1.1484 3.5703-0.078126 1.2617 0.78125 2.3867 2.0156 2.6445 1.5312 0.12109 2.6289-1.5625 3.3086-3.0156v-0.003906c3.1484-6.9258 5.8555-14.047 8.1055-21.316-4.8438 5.5-8.9688 11.586-12.281 18.121z"/>
  <path d="m312.65 654.3c-0.10547 0.44141-0.10156 0.90234 0.007812 1.3398 0.41797 0.95312 1.5117 1.4023 2.4766 1.0312 0.96094-0.40234 1.7617-1.1094 2.2852-2.0078 1.0547-1.6992 1.875-3.5352 2.4414-5.4531 1.8867-5.6719 3.2773-11.48 4.6641-17.281-3.5352 5.918-6.2188 10.484-8.8242 15.098h-0.003906c-1.4258 2.2305-2.457 4.6914-3.0469 7.2734z"/>
  <path d="m334.92 670.55c0.57812-1.4883 1.0234-3.0234 1.3242-4.5898 1.3242-5.9336 2.6523-11.867 3.9766-17.801-3.1758 5.2656-6.0117 10.727-8.4922 16.352-1.0977 2.0117-1.5117 4.3242-1.1797 6.5898 0.13281 0.77734 0.64844 1.4336 1.3711 1.7422 1.2734 0.38281 2.4531-1.0078 3-2.293z"/>
  <path d="m348.48 686.83c1.2617-6.1992 1.8555-12.516 1.7695-18.84-2.6055 6.7148-4.5703 12.422-6.2305 18.207-0.43359 1.5078-0.64844 3.5273 0.68359 4.1875h0.003906c0.94922 0.33594 2.0117 0.011719 2.6094-0.80469 0.59375-0.8125 0.99219-1.7539 1.1641-2.75z"/>
  <path d="m408.36 805.04c-1.6719-4.168-4.0312-8.0273-6.9844-11.41-3.0938-3.4531-7.5859-5.3203-12.215-5.0781-0.32031 5.8047 0.59375 11.613 2.6875 17.039 3.9883 14.082 5.6289 28.723 4.8555 43.336 0.023438 9-2.418 17.832-7.0586 25.543-2.1484 3.1484-5.8984 6.1758-9.5742 4.9023-2.3945-1.1719-4.168-3.3164-4.8789-5.8867-4.918-14.117-6.1836-29.246-3.6797-43.984 1.8516-14.75 5.4492-29.277 6.832-44.078-41.258 33.02-62.242 85.211-55.328 137.6 0.78125 8.3242 3.4688 16.355 7.8555 23.473 4.6875 7.2852 12.723 11.73 21.391 11.82 13.902-0.58594 25.637-15.117 39.086-11.652 6.3867 1.6445 11.188 7.1406 17.637 8.543h-0.003906c6.0977 1.0039 12.301-1.0508 16.59-5.5 4.0742-4.3672 7-9.6797 8.5039-15.457 5.6445-24.473 3.9922-50.059-4.75-73.602-5.6641-19.008-12.672-37.59-20.965-55.605z"/>
  <path d="m574.16 869.39c-1.6016-4.2383-5.0742-7.4961-9.4062-8.8281-2.2773 5.3398-3.4297 11.094-3.3789 16.902-1.1836 14.574-4.6953 28.867-10.395 42.336-3.043 8.4375-8.2812 15.914-15.176 21.66-3.0352 2.2422-7.4961 3.8438-10.41 1.4258h-0.003906c-1.793-1.9297-2.6797-4.5312-2.4375-7.1523 0.35156-14.93 4.3672-29.543 11.691-42.555 6.7344-13.246 14.988-25.703 21.312-39.148-49.371 17.824-86.176 59.68-97.547 110.92-2.1367 8.0547-2.4297 16.48-0.86328 24.664 1.707 8.3164 7.5391 15.184 15.469 18.215 12.883 4.0664 28.559-5.6875 39.641 2.0312 5.2656 3.668 7.7617 10.426 13.168 13.883 5.25 2.9688 11.645 3.0977 17.016 0.33984 5.2383-2.7734 9.7188-6.793 13.043-11.703 13.52-21.121 20.75-45.656 20.848-70.734 1.332-19.715 1.3008-39.5-0.10156-59.211-0.097656-4.457-0.92969-8.8633-2.4688-13.043z"/>
  <path d="m421.99 504.09c4.8633-6.418 8.9727-13.371 12.258-20.723 11.844-23.07 27.086-44.227 45.219-62.77 5.8047-5.9375 12.391-12.969 11.082-21.062-14.855 0.097657-22.371 18.984-36.641 22.996 1.5234-17.73 21.57-31.359 19.34-49.02-11.945 8.5078-22.02 19.379-29.594 31.938-4.0898-2.1445-3.3008-7.9688-2.082-12.328h0.003907c3.2422-11.57 5.3828-23.426 6.3867-35.402 0.41797-1.7031-0.078126-3.5039-1.3125-4.75-2.6367-1.8438-5.6211 1.8438-6.668 4.832-4.9922 14.242-9.9883 28.48-14.98 42.723-8.6016-16.816 6.8164-37.977-0.48828-55.363-13.023 16.977-6.8984 42.891-20.121 59.723l-6.8828-42.641h-0.003906c-5.5625 8.75-7.2734 19.406-4.7305 29.457 1.3516 15.297 0.74609 30.707-1.8086 45.852-3.1484 13.387-5.2539 26.992-6.3008 40.703-0.91797 13.996 4.6055 27.648 15.004 37.062 8.7344-0.25781 16.906-4.3711 22.32-11.227z"/>
  <path d="m305.88 381.76c3.3633 7.3672 7.5625 14.32 12.52 20.727 5.5938 6.8906 13.922 10.992 22.797 11.227 10.574-9.3125 16.234-23 15.32-37.062-1.0664-13.715-3.2188-27.324-6.4336-40.703-2.6055-15.141-3.2266-30.555-1.8438-45.852 2.5938-10.062 0.83984-20.75-4.832-29.457-2.3438 14.215-4.6875 28.426-7.0312 42.641-13.504-16.832-7.2461-42.746-20.551-59.723-7.4609 17.387 8.2891 38.547-0.49609 55.363-5.1016-14.242-10.203-28.48-15.301-42.723-1.0703-2.9883-4.1172-6.6719-6.8125-4.832h-0.003907c-1.2539 1.2344-1.7656 3.0391-1.3438 4.75 1.0312 11.984 3.2148 23.84 6.5273 35.402 1.2461 4.3594 2.0547 10.184-2.125 12.324v0.003906c-7.7812-12.605-18.066-23.477-30.223-31.938-2.2773 17.66 18.191 31.289 19.75 49.02-14.574-4.0117-22.254-22.898-37.422-22.996-1.3359 8.0898 5.3945 15.121 11.32 21.062 18.469 18.477 34.039 39.637 46.184 62.766z"/>
  <path d="m646.92 267.06c-5.8867 4.7891-10.457 11.004-13.273 18.051-2.2734 7.0391 1.4336 14.609 8.3828 17.137 0.87109 0.36719 1.8086 0.54297 2.7539 0.51562 2.0312-0.30078 3.7969-1.5547 4.7461-3.375 2.9414-4.7734 4.6133-11.16 11.18-12.695 2.2773-0.40234 4.6094-0.41016 6.8867-0.019531 8.0977 0.94922 16.148 2.0469 24.145 3.2891l0.003906 0.003906c2.5234 0.52344 5.1094 0.66016 7.6758 0.40625 4.9883-0.68359 9.043-4.3672 10.195-9.2695 0.33984-4.2383-1.0312-8.4414-3.8086-11.664-7.457-9.6719-17.988-16.516-29.855-19.406-11.129 2.7266-21.219 8.6445-29.031 17.027z"/>
  <path d="m713.16 253.81c1.4648-0.88672 2.75-2.0391 3.7852-3.4023 3.4961-4.1289 6.7383-8.4609 9.7109-12.973 2.8438-3.7812 4.7578-8.1719 5.5938-12.828 0.38672-1.957-0.27734-3.9766-1.7578-5.3203-2.125-1.457-4.9258-1.4727-7.0664-0.042968-9.9727 8.9453-15.652 21.715-15.617 35.109 1.7773 0.60547 3.7305 0.40625 5.3516-0.54297z"/>
  <path d="m679.77 232.48c5.4141-4.8828 8.1719-12.051 7.4336-19.305 0.35938-5.9375-0.53125-11.883-2.6133-17.457-0.44531-1.2852-1.3086-2.3828-2.4531-3.1133-1.7148-0.72656-3.6172-0.87891-5.4258-0.4375-2.4414 1.9062-4.3242 4.4336-5.4531 7.3164-1.1289 2.8828-1.4609 6.0156-0.96484 9.0703 0.34375 6.1602 1.4883 12.254 3.4023 18.117 0.56641 3.043 3.0117 5.3789 6.0742 5.8086z"/>
  <path d="m635.62 218.98c2.1875 3.8984 4.375 7.7969 6.5625 11.695 1.9336 3.8047 4.3398 7.3477 7.1562 10.551 0.67188 1.0039 1.8984 1.4883 3.0742 1.2109 1.1758-0.28125 2.0586-1.2578 2.2109-2.457 1.2148-4.4727 1.2812-9.1836 0.18359-13.688-1.3945-8.1094-3.3633-16.109-5.8945-23.938-0.48047-1.9336-1.4102-3.7266-2.7188-5.2266-2.0898-1.8438-4.8594-2.7266-7.6328-2.4219-2.5859 2.2227-4.4961 5.1328-5.5117 8.3906-1.0117 3.2578-1.0898 6.7383-0.21875 10.039 0.73437 2.0352 1.668 3.9922 2.7891 5.8438z"/>
  <path d="m626.52 261.1c1.4727 1.0078 3.1523 1.6719 4.9141 1.9453 1.8711 0.30469 3.7617-0.40234 4.9727-1.8633 0.47266-1.1836 0.30859-2.5273-0.44141-3.5586-5.625-10.953-13.113-20.844-22.129-29.227-1.9414-1.9922-4.4883-3.2773-7.2422-3.6562-3.7891 0.88672-6.4961 4.2227-6.5859 8.1094 0.46484 3.3672 2.0117 6.4883 4.4023 8.8984 6.2109 7.668 13.688 14.215 22.109 19.352z"/>
  <path d="m668.98 310.59c-2.6875 1.1055-5.6602 1.6328-8.4375 2.5742v0.003906c-2.6836 0.65234-5.0156 2.3164-6.5039 4.6406-0.69531 2.2031-0.19141 4.6055 1.3242 6.3438 0.96875 1.6211 2.3828 2.9336 4.0742 3.7812 4.957 1.707 10.441-0.14063 13.352-4.5 2.0664-3.9258 0.089844-8.3359-3.8086-12.844z"/>
  <path d="m705.93 314.55c2.75 1.1875 5.75 1.6758 8.7344 1.4219 3.0742-0.45703 6.793-3.0781 4.8008-7.4414h0.003906c-1.5117-3.8633-4.2617-7.1133-7.8203-9.2422-5.5547-2.668-11.996-2.7734-17.629-0.28516-5.1641 1.8828-8.7148 6.6562-9.0312 12.141 0.050781 1.5508 0.74609 3.0078 1.9141 4.0234 1.168 1.0195 2.707 1.5039 4.2461 1.3438 2.6641-0.33203 4.5859-2.3945 7.1797-3.0469 2.5859-0.39453 5.2305-0.019531 7.6016 1.0859z"/>
  <path d="m491.58 236.75c-1.6289 4.5117-1.6016 9.4531 0.082031 13.941 2.3398 4.7852 7.4727 7.5391 12.75 6.8438 2.5625-0.55078 5.0117-1.5312 7.2422-2.9023 7.2773-3.918 14.648-7.6914 22.121-11.32v0.003906c2.043-1.1523 4.2891-1.8945 6.6133-2.1875 6.7969-0.42969 10.445 6 14.797 10.266 1.3867 1.6367 3.5117 2.4531 5.6367 2.1602 0.92969-0.27734 1.7773-0.77344 2.4805-1.4453 2.8711-2.6914 4.6992-6.3086 5.168-10.219 0.46875-3.9062-0.45703-7.8555-2.6133-11.152-4.7695-6.6211-11.141-11.934-18.516-15.434-9.8438-6.543-21.508-9.793-33.316-9.2734-10.766 7.3828-18.684 18.223-22.445 30.719z"/>
  <path d="m461.32 208.52c4.2695 3.9453 8.7695 7.6328 13.477 11.039 1.3945 1.1367 3 1.9844 4.7227 2.4961 1.8477 0.52344 3.832 0.10547 5.3086-1.1172-3.9141-14.168-13.367-26.168-26.227-33.285-2.5195-0.875-5.3125 0.074218-6.7695 2.3086-0.99219 2.0078-0.98438 4.3633 0.015625 6.3633 2.2188 4.7148 5.4531 8.8789 9.4727 12.195z"/>
  <path d="m504.74 188.11c2.9102-1.6719 4.4883-4.9648 3.9688-8.2773-0.042969-7.0234-0.89063-14.02-2.5312-20.848-0.85547-6.8711-5.1562-12.836-11.406-15.816-1.8984 0.10938-3.6992 0.89453-5.0703 2.2109-0.87891 1.2188-1.3516 2.6836-1.3555 4.1836-0.21094 6.7578 0.83203 13.496 3.0781 19.875 1.4375 7.8945 6.3203 14.742 13.316 18.672z"/>
  <path d="m531.27 188.24c0.38672 1.2383 1.5703 2.0547 2.8672 1.9766s2.3711-1.0312 2.6055-2.3086c1.6914-4.4492 2.8633-9.0781 3.4922-13.797 0.85156-4.9531 1.6992-9.9023 2.5508-14.855 0.48828-2.3945 0.75781-4.8242 0.80469-7.2656-0.30859-7.6758-4.6406-14.617-11.398-18.266-2.8359 0.62891-5.2383 2.4961-6.5469 5.0898-0.78125 2.0938-1.1016 4.3359-0.9375 6.5664 0.078124 9.3633 0.75 18.715 2.0039 27.996 0.38281 5.2344 1.9414 10.316 4.5586 14.863z"/>
  <path d="m560.92 205.96c1.6367-0.89062 3.0391-2.1562 4.0938-3.6914 6.5391-8.4922 11.617-18.02 15.02-28.184 1.5391-3.4922 2.0195-7.3555 1.3828-11.113-1.0938-4.0156-4.7578-6.7852-8.918-6.7344-1.9375 0.46094-4.4766 3.6406-5.7812 6.3047-6.0391 12.258-10.055 25.414-11.883 38.957-0.38672 1.3828-0.12109 2.8633 0.71875 4.0234 1.543 1.1953 3.6484 1.3672 5.3672 0.4375z"/>
  <path d="m554.82 285.68c1.3828-1.5273 2.3164-3.4062 2.6992-5.4297 0.89453-2.4297 0.61719-5.1406-0.75781-7.3398-2.0586-2.0117-4.8516-3.0898-7.7305-2.9805-2.9688-0.13672-5.9922 0.23438-8.9219-0.10938-1.3242 2.3359-1.9805 4.9922-1.9023 7.6797 0.082031 2.6836 0.89844 5.293 2.3594 7.5469 3.8984 3.8086 10.035 4.082 14.254 0.63281z"/>
  <path d="m512.37 265.21c-6.2461-0.89062-12.535 1.3359-16.828 5.957-2.7891 3.6172-4.3789 8.0156-4.5469 12.582-0.31641 1.9023 0.33984 3.832 1.7422 5.1523s3.3711 1.8555 5.25 1.4258c2.9883-0.70312 5.7266-2.207 7.9297-4.3477 1.8594-1.9297 4.2969-3.1992 6.9453-3.6172 2.6992-0.12109 5.2031 1.5117 7.8672 1.0234 1.6094-0.46094 2.9609-1.5508 3.75-3.0273 0.79297-1.4727 0.95313-3.2031 0.44531-4.7969-0.86719-2.7539-2.5156-5.1992-4.7422-7.0352-2.2305-1.8398-4.9414-2.9883-7.8125-3.3164z"/>
  <path d="m522.6 514.57c2.3789 2.4961 6.1172 3.1133 9.1758 1.5234 3.0742-1.7344 5.332-4.6211 6.2656-8.0273 0.96484-3.4531 1.2578-7.0625 0.86328-10.629-0.40234-5.0352-0.55859-11.828-5.8984-15.25-1.8047-1.5078-4.1211-2.2695-6.4727-2.1211-1.7031 0.49219-3.1914 1.5508-4.2109 3-3.1211 4.0469-4.8281 9.0078-4.8555 14.121-0.03125 5.0781 1.1406 10.094 3.4219 14.633 0.44922 0.98828 1.0234 1.9141 1.7109 2.75z"/>
  <path d="m548.41 485.32c1.6953 1.2891 3.9805 1.4961 5.875 0.52344 1.9141-1.0156 3.5156-2.5352 4.6289-4.3945 3.25-5.4766 5.0352-11.703 5.1836-18.074 0.23828-4.8164-0.11328-9.6445-1.0508-14.379-4.1641-0.94922-8.5078 0.50391-11.258 3.7695-2.8477 3.3672-4.832 7.3789-5.7812 11.684-0.55859 1.9688-0.91797 3.9922-1.0625 6.0352-0.0625 2.9102 0.21484 5.8203 0.83203 8.6641 0.16016 2.293 1.0898 4.4688 2.6328 6.1719z"/>
  <path d="m586.12 448.84c-2.6328-0.65234-5.0547 1.875-6.4141 4.4336-2.8086 6.1836-4.0898 12.949-3.7383 19.73-0.28125 5.7305 0.58203 11.461 2.5391 16.852 0.62891 2.0234 2.0742 3.6836 3.9883 4.5859 1.7695 0.45703 3.6484-0.019531 4.9883-1.2617 1.3789-1.2773 2.4922-2.8125 3.2773-4.5195 5.5469-11.172 5.3711-24.328-0.46875-35.352-0.99219-1.8984-2.1992-3.9805-4.1719-4.4688z"/>
  <path d="m606.33 494.95c-7.3008 4.8086-12.922 11.773-16.078 19.926-1.6484 3.1016-1.668 6.8203-0.046875 9.9414 1.7031 2.0156 4.4727 2.7734 6.9648 1.9023 2.4648-0.92188 4.6758-2.418 6.4492-4.3594 6.2695-5.5586 10.473-13.078 11.926-21.328 0.375-2.3359-0.22656-4.7188-1.6602-6.5977-1.8711-2.1211-5.1914-1-7.5547 0.51562z"/>
  <path d="m580.01 529.18c-3.9922-6.5195-0.375-19.309-9.9258-23.863h0.003907c-3.4414-1.4297-7.293-1.5195-10.793-0.24609-3.5 1.2734-6.3945 3.8164-8.1094 7.1211-1.1914 3.2188-2.6523 6.332-4.3672 9.3047-1.8359 2.0898-4.1211 3.7305-6.6875 4.8008-5.5 2.2227-10.582 5.3711-15.016 9.3125-2.25 2.125-3.8633 4.8359-4.6523 7.8242-0.79297 2.9922-0.73438 6.1445 0.16797 9.1016 1.5703 3.6211 4.7461 6.2969 8.582 7.2227 3.7305 0.80078 7.6172 0.50391 11.184-0.86328 3.7539-1.7148 7.6641-3.0859 11.672-4.0898 7.2188-0.003906 14.309 1.9414 20.52 5.6289 3.1328 1.8086 6.7031 2.7188 10.32 2.6211 3.6211-0.097656 7.1406-1.1953 10.172-3.1719 4.7148-4.5195 5.6914-11.695 2.3477-17.309-3.8359-5.875-11.742-7.3984-15.418-13.395z"/>
  <path d="m522.78 471.48c3.3633-0.33594 6.75 0.28125 9.7773 1.7812-0.92578-7.9414-0.56641-15.977 1.0625-23.801-5.9062 5.9688-9.7109 13.695-10.84 22.02z"/>
  <path d="m571.37 418.78c-0.98438-0.23828-1.9258 0.53906-2.6562 1.3086h0.003906c-4.6445 5.5586-8.2578 11.902-10.676 18.73 3.0859 1.0781 6.7148 1.5469 10.008 2.9336 1.1094-7.6562 2.2148-15.312 3.3203-22.973z"/>
  <path d="m592.16 441.42c-1.2891-6.4727-3.707-12.668-7.1406-18.305-1.25 5.9922-2.5 11.984-3.75 17.98 3.5352-1.3242 7.4453-1.207 10.891 0.32422z"/>
  <path d="m604.45 483.98c3.9492-1.3047 8.2578-0.99219 11.977 0.86719-0.16406-7.3672-2.5859-14.504-6.9414-20.449-1.5078 6.5742-3.1836 13.102-5.0352 19.582z"/>
  <path d="m684.85 596.29c0.80859 0.72266 1.7109 1.3359 2.6797 1.8203 3.1836 1.3164 6.8555 0.36328 9-2.332 2.1094-2.832 2.9961-6.3867 2.4688-9.8789-0.51953-3.5508-1.7188-6.9648-3.5273-10.066-2.4102-4.4375-5.3125-10.582-11.578-11.543v0.003906c-2.2656-0.64844-4.6914-0.39844-6.7812 0.6875-1.3555 1.1406-2.2852 2.7109-2.6289 4.4492-1.207 4.9688-0.75391 10.195 1.2969 14.879 2.0312 4.6523 5.1406 8.7617 9.0703 11.98z"/>
  <path d="m704.82 559c1.3359-1.707 2.1836-3.7461 2.4453-5.8945 0.75-6.3281-0.14844-12.742-2.6016-18.621-1.7344-4.5039-4.0195-8.7734-6.7969-12.715-4.1875 0.82031-7.5703 3.9141-8.7578 8.0156-1.2344 4.2305-1.418 8.6992-0.53906 13.02 0.28906 2.0312 0.78516 4.0234 1.4805 5.9492 1.125 2.6875 2.5586 5.2305 4.2773 7.582 1.0781 2.0273 2.8086 3.6367 4.9102 4.5664 2.0742 0.49609 4.2461-0.24609 5.582-1.9023z"/>
  <path d="m728.59 552.83c1.3906 1.5898 3.3867 2.5234 5.5039 2.5703 1.8008-0.30078 3.3242-1.5 4.0469-3.1797 0.74219-1.7266 1.1367-3.582 1.1602-5.4609 0.53125-12.461-4.9727-24.414-14.781-32.113-1.4688-1.5391-3.5039-2.4023-5.6289-2.3906-2.668 0.47266-3.8594 3.7695-4.0586 6.6562-0.058594 6.7891 1.5156 13.492 4.5938 19.547 2.0703 5.3516 5.1836 10.234 9.1641 14.371z"/>
  <path d="m756.08 546.19c-4.7227 7.3594-7.0312 16.004-6.6055 24.738-0.25 3.5039 1.2461 6.9102 3.9922 9.1016 2.375 1.1562 5.2148 0.72266 7.1367-1.0859 1.8789-1.8438 3.293-4.1094 4.125-6.6055 3.4727-7.625 4.2617-16.199 2.2422-24.332-0.60938-2.2852-2.1289-4.2188-4.1992-5.3555-2.5703-1.1797-5.1523 1.1953-6.6914 3.5391z"/>
  <path d="m711.92 636.73c3.7344-0.78125 7.1641-2.6289 9.8672-5.3242 2.7383-3.0977 5.7539-5.9336 9.0078-8.4805 6.5977-2.9336 13.863-4.0352 21.035-3.1875 3.5977 0.38281 7.2344-0.23828 10.5-1.793 3.2656-1.5586 6.0391-3.9883 8.0078-7.0273 2.4766-6.043 0.45312-13-4.8789-16.773-5.8906-3.8125-13.738-1.9922-19.527-5.9844-6.2969-4.3359-8.1797-17.492-18.758-17.777h-0.003906c-3.7227 0.089844-7.2773 1.5742-9.9609 4.1602-2.6797 2.5859-4.293 6.082-4.5195 9.8008 0.21875 3.4219 0.14844 6.8594-0.21484 10.273-0.82812 2.6562-2.2539 5.0859-4.1641 7.1055-4.125 4.2617-7.4883 9.2031-9.9414 14.605-1.1914 2.8555-1.5625 5.9844-1.0742 9.0391 0.49219 3.0547 1.8242 5.9102 3.8516 8.25 2.9023 2.6719 6.8906 3.8242 10.773 3.1133z"/>
  <path d="m679.86 556.32c-4.0664-6.8789-7.0039-14.371-8.6914-22.184-2.9727 7.8555-3.3125 16.461-0.96484 24.527 2.9336-1.6719 6.2812-2.4805 9.6562-2.3438z"/>
  <path d="m691.31 493.05c-1.9844 6.9648-2.7148 14.23-2.1484 21.449 3.2578-0.26953 6.7656-1.3125 10.34-1.3828-2.0977-7.4453-4.1953-14.895-6.293-22.34-0.99609 0.18359-1.5391 1.2773-1.8984 2.2734z"/>
  <path d="m721.4 503.03c-3.8086-5.3906-8.5312-10.074-13.957-13.832 1.293 5.9844 2.582 11.969 3.8711 17.953 2.6914-2.6445 6.3125-4.125 10.086-4.1211z"/>
  <path d="m761.2 532.86c-3.1406-6.6641-8.2539-12.203-14.645-15.871 1.2891 6.6211 2.4062 13.266 3.3477 19.938v0.003907c3.0781-2.7969 7.1406-4.2578 11.297-4.0703z"/>
  <path d="m996.77 551.9c-5.0703-0.22266-8.7383 4.4883-11 8.8398-7.1953 15.535-11.453 32.266-12.555 49.348-2.8594 14.848-1.3633 30.203 4.3086 44.219 1.5312 3.2383 3.7109 6.1211 6.4062 8.4766 4.9531 3.625 10.887 5.6641 17.023 5.8438 3.3008 0.70312 6.7344 0.45312 9.8984-0.72656 3.1641-1.1797 5.9258-3.2344 7.9648-5.9258 1.3281-3.5586 1.5-7.4453 0.48828-11.105-5.4961-32.156-13.023-63.996-22.535-98.969z"/>
  <path d="m1063.5 608.52c-2.9844-13.566-8.9727-26.293-17.52-37.246-9.1211-11.531-21.895-19.613-36.219-22.922-3.1992 7.0898-2.8086 15.281 1.0469 22.031 8.8125 24.035 13.73 49.211 21.465 73.586 0.98438 4.6211 3.4492 8.8008 7.0195 11.898 3.6484 2.1758 7.8828 3.1602 12.113 2.8242 3.0469 0.24609 6.0781-0.60938 8.5469-2.4062 1.3516-1.3984 2.3281-3.1094 2.8477-4.9805 4.2852-13.906 4.5273-28.746 0.69922-42.785z"/>
  <path d="m949.25 590.2c2.9648-2.3438 5.3867-5.2969 7.1094-8.6602 6.2109-14.332 7.7227-30.266 4.3242-45.512-1.4922-17.793-6.4883-35.121-14.695-50.98-1.0742-2.5078-2.793-4.6836-4.9844-6.3047-2.1953-1.625-4.7773-2.6328-7.4922-2.9258-9.8555 33.457-17.926 67.41-24.18 101.72-1.0938 3.7812-0.85156 7.8242 0.67969 11.449 3.3711 6.0977 12.543 7.543 20.168 7.0508v-0.003906c6.7852-0.082031 13.402-2.1055 19.07-5.832z"/>
  <path d="m863.63 582.66c2.8398 1.8945 6.2266 2.7969 9.6367 2.5742 4.7031 0.40625 9.4258-0.55469 13.59-2.7773 3.9102-3.0469 6.6484-7.3477 7.7578-12.18 8.4102-25.027 13.645-50.914 23.273-75.578 2.8906-7.4023 6.0078-16.102 0.92188-22.684-15.695 3.0234-29.934 11.191-40.465 23.215-9.3867 11-15.996 24.094-19.266 38.18-4.1367 14.477-3.6875 29.879 1.2891 44.09 0.62891 1.9688 1.75 3.7461 3.2617 5.1602z"/>
  <path d="m768.43 929.08c4.1367-0.23438 7.8867-2.5156 10-6.0781 3.582-5.0312 5.0117-11.281 3.9688-17.367-1.0664-6.2891-5.1953-11.641-11.008-14.266-1.8359-0.84375-3.7344-1.5352-5.6797-2.0742l1.2109-0.58594c-5.418-7.8438-13.574-13.379-22.863-15.516-2.4102-0.76953-5.0156-0.69922-7.3828 0.19922 0.007813 0.8125 0.29297 1.5977 0.80859 2.2227 4.5273 6.918 9.0586 13.836 13.586 20.75l0.76172-0.36719c-0.31641 0.71094-0.5625 1.4453-0.74609 2.1992-0.23438 3.2383 0.25391 6.4883 1.4375 9.5117 1.8008 5.3438 4.3008 10.43 7.4336 15.117 1.6914 3.2969 4.8281 5.6094 8.4727 6.2539z"/>
  <path d="m815.49 913.13 0.10547-0.007812v-0.003906c-0.69531-6.4961-3.3086-12.641-7.5039-17.648-2.1094-2.5742-5.332-3.9766-8.6562-3.7695-0.21875 7.6445-0.44141 15.289-0.66406 22.938l3.8398-0.34766c-2.5625 1.5195-4.8828 3.4141-6.8906 5.6172-2.8359 2.8047-4.918 6.2852-6.0547 10.109-0.58984 3.1953-0.19922 6.4922 1.1211 9.4609 1.3242 2.9648 3.5117 5.4609 6.2812 7.1602 2.8164 1.9219 6.125 2.9961 9.5352 3.0938 3.582 0.074219 7.0586-1.2031 9.7422-3.5781 2.9648-3.2539 4.8477-7.3477 5.3828-11.715 1.1211-4.1719 1.3594-8.5312 0.70703-12.797-0.91406-3.7422-3.4648-6.8672-6.9453-8.5117z"/>
  <path d="m744.34 921.36c-3.207-4.75-6.9609-9.1055-11.184-12.98l0.14062-0.089844c-3.9297-8.7773-9.375-16.789-16.094-23.668-3.5469 4.9336-5.1055 11.023-4.3594 17.059 0.80469 5.7422 2.4883 11.324 5 16.551l0.65234-0.42187v0.003906c-1.1641 2.5859-2.0117 5.3047-2.5273 8.0938-0.99219 3.707-0.625 7.6445 1.0312 11.105 2.2617 3.0039 5.4648 5.1602 9.0977 6.1289 3.4531 1.2617 6.9883 2.2969 10.578 3.0938 2.3945 0.65234 4.8906 0.85156 7.3594 0.59375 2.5625-0.29297 4.8594-1.7031 6.2812-3.8555 0.90625-1.8125 1.1836-3.875 0.79688-5.8672-1.0039-5.7031-3.3242-11.094-6.7734-15.746z"/>
  <path d="m737.34 957.51c-4.7656-0.67188-9.6133-0.5-14.32 0.50781-7.0625-3.9258-13.316-14.32-20.449-18.285-1.9766 3.0195 1.5117 14.645 1.5117 14.645h0.003907c1.5234 4.8398 3.5156 9.5195 5.9492 13.973l1.2656-1.0039h-0.003906c-0.43359 0.95312-0.73828 1.9648-0.90625 3.0039-0.0625 3.7031 0.76953 7.3633 2.4258 10.676 2.3789 5.8633 5.5 12.379 11.922 13.934h0.003907c3.7422 0.73047 7.625 0.019531 10.867-1.9883 3.25-2.0039 6.0391-4.668 8.1875-7.8242 4.7344-5.4844 6.1992-13.07 3.8555-19.926-2.168-3.9336-5.9258-6.7422-10.312-7.7109z"/>
  <path d="m926.59 825.88c-2.043-2.6172-4.8984-4.4844-8.1172-5.3008-3.2188-0.81641-6.6172-0.53906-9.6602 0.78516-9.4375 3.6445-18.25 8.7383-26.113 15.102-4.9414 3.3594-7.8047 9.0234-7.5859 14.992 1.2578 7.0312 9.2227 10.695 16.223 12.793 12.648 3.793 25.641 6.3281 38.789 7.582 2.2773 0.44922 4.6445 0.14453 6.7344-0.875 1.6562-1.2461 2.7852-3.0703 3.1562-5.1094 1.2969-8.6758-0.43359-17.527-4.9023-25.074-2.3555-5.2266-5.2109-10.215-8.5234-14.895z"/>
  <path d="m945.91 797.91c6.0117-1.3945 11.223-5.1133 14.5-10.34 3.5195-5.4883 4.2656-12.305 2.0195-18.422-0.69922-1.9023-1.543-3.7461-2.5312-5.5117l1.2344 0.40234v-0.003906c1.5781-9.543-0.32031-19.34-5.3516-27.602-1.1172-2.2227-2.9766-3.9883-5.2578-4.9844-0.54688 0.625-0.87891 1.4102-0.94141 2.2422-1.543 8.3672-3.082 16.734-4.6211 25.102l0.49219 0.16016c-0.60938 0.36328-1.1836 0.77344-1.7188 1.2344-2.375 2.3047-4.2305 5.0938-5.4414 8.1758-2.3711 5.293-4.0742 10.859-5.0742 16.574-1.0664 3.6055-0.46484 7.4961 1.6445 10.609 3 2.6914 7.2031 3.5938 11.047 2.3633z"/>
  <path d="m895.99 808.37c1.168-4.4102 0.46875-9.1055-1.9297-12.988-2.8164-3.7852-6.2969-7.0312-10.277-9.5703-2.2422-7.8711 0.45703-20.066-1.8047-28.016-3.4141 0.90625-8.8633 12.102-8.8633 12.102-2.2188 4.7227-4.0039 9.6328-5.3281 14.68l1.5547 0.12109h0.003906c-0.95703 0.42188-1.8516 0.97266-2.6641 1.6367-2.5664 2.7812-4.4609 6.1133-5.543 9.7422-3.2031 5.7695-3.6289 12.68-1.1602 18.805 2.0469 3.1133 5.2383 5.2891 8.8828 6.0547 3.6289 0.74609 7.3789 0.67578 10.973-0.21094 7.1836-0.99609 13.312-5.6875 16.156-12.355z"/>
  <path d="m985.1 797.77c0.3125-3.3359-0.96484-6.6172-3.4492-8.8633-5.3281 5.6133-10.652 11.23-15.98 16.844l2.8945 2.4062v0.003906c-2.8125-0.63672-5.707-0.82422-8.5781-0.55469-3.9141 0.16016-7.7188 1.3359-11.039 3.418-2.5977 2.0586-4.5547 4.8203-5.6367 7.9531-1.082 3.1328-1.2461 6.5078-0.47656 9.7344 0.625 3.3555 2.1914 6.4648 4.5156 8.9609 2.3945 2.5312 5.6992 3.9961 9.1797 4.0742 4.3281-0.42188 8.4102-2.207 11.66-5.0938 3.6367-2.4102 6.75-5.5273 9.1484-9.168 1.8984-3.4453 2.2383-7.5352 0.94141-11.25l0.078125 0.066406h0.003906c3.9297-5.4297 6.2617-11.848 6.7383-18.531z"/>
  <path d="m929.43 726.39c-5.918 1.332-11.121 4.8438-14.57 9.8359-3.3398 4.918-5.9453 10.297-7.7305 15.969l0.73828 0.13672h-0.003907c-2.5742 1.1523-5.0039 2.6133-7.2305 4.3516-3.2383 2.1641-5.6406 5.375-6.8008 9.0938-0.47266 3.7891 0.28516 7.625 2.1602 10.949 1.5352 3.3398 3.2891 6.5781 5.2461 9.6914 1.2031 2.1328 2.7969 4.0234 4.7031 5.5625 1.9609 1.5586 4.5391 2.0977 6.9609 1.4609 1.8867-0.76953 3.4727-2.1289 4.5234-3.875 3.1719-5.0273 5.2031-10.691 5.957-16.59 0.98828-5.8008 1.3359-11.695 1.0273-17.57l0.16016 0.03125v-0.003906c3.2148-9.3438 4.8555-19.16 4.8594-29.043z"/>
  <path d="m950.27 376.34 18.891 49.328h0.003907c0.41016 1.0742 1.4414 1.7812 2.5898 1.7812 0.33984 0 0.67578-0.0625 0.99609-0.1875 0.6875-0.26172 1.2422-0.78906 1.5391-1.4609 0.30078-0.67188 0.32031-1.4375 0.054687-2.125l-18.129-47.34c0.09375-0.19141 0.33984-0.27344 0.38672-0.48438 5.3906-23.855 7.8633-48.281 7.3711-72.738-0.035156-1.5078-1.2695-2.7148-2.7773-2.7188h-0.058594c-1.5312 0.039063-2.75 1.3047-2.7188 2.8359 0.41406 21.441-1.5117 42.863-5.7383 63.887l-22.215-58 0.003906-0.003907c-0.26562-0.6875-0.79297-1.2422-1.4648-1.5391-0.67187-0.30078-1.4375-0.32031-2.1211-0.054688-0.6875 0.26172-1.2422 0.78906-1.543 1.4648-0.29688 0.67188-0.31641 1.4375-0.050781 2.1211l21.836 57.012h-0.003906c-18.152-10.445-34.098-24.32-46.957-40.852-0.93359-1.2227-2.6797-1.457-3.9023-0.52734-1.2227 0.93359-1.4609 2.6797-0.52734 3.9023 14.727 18.934 33.32 34.512 54.535 45.699z"/>
  <path d="m852.94 292.99c-1.4922-0.32031-2.9688 0.59766-3.3398 2.0742-4.8086 20.211-11.746 39.855-20.699 58.605l-6.207-63.453v-0.003906c-0.011718-0.75391-0.35547-1.4688-0.9375-1.9531-0.58594-0.48047-1.3555-0.67969-2.0977-0.54297-1.5273 0.15234-2.6445 1.5117-2.4961 3.0352l6.3984 65.41v0.003906c-15.488-14.898-27.871-32.719-36.434-52.43-0.59766-1.4102-2.2227-2.0703-3.6328-1.4766-1.4102 0.59766-2.0742 2.2227-1.4766 3.6328 9.7109 22.434 24.168 42.496 42.379 58.805l5.0352 51.469c0.13672 1.4258 1.332 2.5117 2.7656 2.5078l0.26953-0.011719c1.5234-0.14844 2.6406-1.5078 2.4961-3.0352l-5.0156-51.281h-0.003907c11.059-21.582 19.477-44.418 25.07-68.016 0.34375-1.4922-0.58203-2.9844-2.0742-3.3398z"/>
  <path d="m833.35 693.22c-9.1914 19.059-23.453 35.215-41.223 46.695 5.8125-22.414 12.141-44.75 19.367-66.559 0.23047-0.69922 0.17969-1.4609-0.15234-2.1211-0.32812-0.66016-0.90625-1.1602-1.6055-1.3945s-1.4648-0.17969-2.125 0.15234c-0.65625 0.32812-1.1602 0.90625-1.3906 1.6055-7.293 22.027-13.688 44.59-19.555 67.23l-0.003906 0.003906c-6.6445-7.9141-11.32-17.285-13.641-27.355-2.6016-12.293-3.1914-24.93-1.7461-37.418 0.13281-1.5234-0.99609-2.8711-2.5234-3.0078-1.5234-0.13672-2.8711 0.99219-3.0078 2.5156-1.5 13.074-0.87109 26.305 1.8633 39.176 2.6797 12.238 8.6953 23.492 17.379 32.52-1.1523 4.5703-2.4844 9.1133-3.5742 13.691v-0.003906c-0.34766 1.4961 0.57031 2.9883 2.0625 3.3516 0.21094 0.046875 0.42578 0.070313 0.64453 0.070313 1.2852 0 2.4023-0.88281 2.707-2.1328 0.98438-4.1367 2.1914-8.2422 3.2266-12.371 0.074219-0.035157 0.15625-0.019532 0.23047-0.0625 20.887-12.195 37.637-30.375 48.082-52.195 0.66016-1.3828 0.070313-3.043-1.3125-3.7031-1.3867-0.66016-3.043-0.070312-3.7031 1.3125z"/>
  <path d="m701.09 732.42c-0.035156-1.5352-1.2539-2.4258-2.8477-2.707-0.73828 0.015625-1.4375 0.32812-1.9453 0.85938-0.50781 0.53516-0.78125 1.25-0.76172 1.9883 0.375 21.145-5.0742 41.988-15.75 60.246-4.9023-22.574-9.3164-45.348-12.715-68.133-0.085937-0.74219-0.47266-1.4141-1.0703-1.8555-0.59766-0.44141-1.3516-0.61719-2.082-0.47656-0.73047 0.10547-1.3867 0.49609-1.8242 1.0898-0.4375 0.58984-0.62109 1.332-0.50781 2.0625 3.4258 23.016 7.8828 46.023 12.84 68.832v-0.003906c-9.4961-4.0703-17.895-10.332-24.5-18.273-7.8711-9.8047-14.098-20.824-18.434-32.625-0.57031-1.4258-2.1875-2.1172-3.6094-1.5469-1.4258 0.56641-2.1172 2.1836-1.5469 3.6094 4.5469 12.348 11.07 23.871 19.324 34.125 7.9023 9.7148 18.344 17.055 30.16 21.199 1.0273 4.5977 1.8906 9.2578 2.9766 13.824h0.003906c0.30078 1.2539 1.418 2.1328 2.707 2.1328 0.21484 0 0.42969-0.023437 0.64453-0.070312 1.4883-0.36328 2.4062-1.8555 2.0625-3.3516-0.98438-4.125-1.7578-8.3438-2.6953-12.496 0.050781-0.0625 0.12891-0.089843 0.17578-0.16016 13.145-20.305 19.902-44.086 19.395-68.27z"/>
  <path d="m450.68 591.57c-0.20312-0.56641-0.49609-1.0859-0.66797-1.6641-2.4805 2.8906-4.9609 5.7773-7.4414 8.668-1.8828 2.6211-4.4023 4.7266-7.3164 6.1172-4.2344 1.5273-8.8516-0.48047-13.434-0.53125-5.043-2.2305-9.7266-5.1953-13.895-8.8008 5.4141 10.164 9.1055 21.156 10.918 32.531 5.7852 30.484 5.1211 61.996 9.0625 90.473 17.09-37.664 36.621-74.168 58.477-109.28-6.793 3.668-15.008 3.5391-21.68-0.34766-6.6055-3.8281-11.586-9.9258-14.02-17.16l0.019531-0.11719z"/>
  <path d="m558.08 695.26c-4.9727-2.6484-9.5391-6-13.559-9.9531-2.9375-4.1211-5.2852-8.6289-6.9766-13.398-0.37109-3.4883 0.015625-7.0117 1.1289-10.332l3.0273-11.664c-0.52734 0.097657-1.0703 0.046876-1.6055 0.10938l0.074219-0.074219-0.078125 0.074219-0.003906-0.003907c-7.2422 0.80078-14.492-1.4141-20.051-6.1211-6.5039-5.4609-10.441-13.387-10.863-21.871-16.02 38.234-34.543 75.367-55.449 111.16 23.82-9.4766 47.73-25.07 74-33.621 9.7031-3.5547 20.047-5.0195 30.355-4.3047z"/>
 </g>
</svg>
