<?xml version="1.0" encoding="UTF-8"?>
<svg width="1200pt" height="1200pt" version="1.1" viewBox="0 0 1200 1200" xmlns="http://www.w3.org/2000/svg">
 <g>
  <path d="m825 900c0 10.355-8.3945 18.75-18.75 18.75s-18.75-8.3945-18.75-18.75 8.3945-18.75 18.75-18.75 18.75 8.3945 18.75 18.75"/>
  <path d="m937.5 900c0 10.355-8.3945 18.75-18.75 18.75s-18.75-8.3945-18.75-18.75 8.3945-18.75 18.75-18.75 18.75 8.3945 18.75 18.75"/>
  <path d="m300 900c0 10.355-8.3945 18.75-18.75 18.75s-18.75-8.3945-18.75-18.75 8.3945-18.75 18.75-18.75 18.75 8.3945 18.75 18.75"/>
  <path d="m412.5 900c0 10.355-8.3945 18.75-18.75 18.75s-18.75-8.3945-18.75-18.75 8.3945-18.75 18.75-18.75 18.75 8.3945 18.75 18.75"/>
  <path d="m1162.5 656.25h-75c-3.582 0-7.0898 1.0234-10.109 2.957-3.0156 1.9297-5.418 4.6836-6.918 7.9375l-78.801 170.73c-5.2852-29.844-20.895-56.879-44.105-76.371-23.207-19.496-52.531-30.203-82.84-30.254h-4.4531c-30.309 0.050781-59.633 10.758-82.84 30.254-23.211 19.492-38.82 46.527-44.105 76.371l-78.801-170.73c-1.5-3.2539-3.9023-6.0078-6.918-7.9375-3.0195-1.9336-6.5273-2.957-10.109-2.957h-75c-6.1641 0-11.938 3.0352-15.438 8.1133-0.57422 0.89844-1.0703 1.8477-1.4844 2.832l-0.10938-0.050781-78.801 170.73h0.003906c-5.2852-29.844-20.895-56.879-44.105-76.371-23.207-19.496-52.531-30.203-82.84-30.254h-4.4531c-30.309 0.050781-59.633 10.758-82.84 30.254-23.211 19.492-38.82 46.527-44.105 76.371l-78.801-170.73c-1.5-3.2539-3.9023-6.0078-6.918-7.9375-3.0195-1.9336-6.5273-2.957-10.109-2.957h-75c-6.168 0.003906-11.941 3.0391-15.438 8.1172-3.5 5.0781-4.2812 11.551-2.0859 17.316l148.77 390.51v109.06h37.5v-112.5c0-2.2852-0.41406-4.5508-1.2266-6.6836l-140.31-368.32h35.797l107.46 232.86 0.61719-0.28516c5.6328 29.484 21.363 56.09 44.48 75.238 23.121 19.148 52.188 29.645 82.203 29.691h4.4531c30.016-0.046875 59.082-10.547 82.203-29.695 23.117-19.148 38.848-45.75 44.48-75.234l0.61719 0.28516 93.816-203.27 19.086 50.098-109.95 288.63c-0.8125 2.1328-1.2266 4.3984-1.2266 6.6836v112.5h37.5v-109.06l93.75-246.08 93.75 246.08v109.06h37.5v-112.5c0-2.2852-0.41406-4.5508-1.2266-6.6836l-140.31-368.32h35.797l107.46 232.86 0.61719-0.28516c5.6328 29.484 21.363 56.09 44.48 75.238 23.121 19.148 52.188 29.645 82.203 29.691h4.4531c30.016-0.046875 59.082-10.547 82.203-29.695 23.117-19.148 38.848-45.75 44.48-75.234l0.61719 0.28516 107.46-232.86h35.797l-140.31 368.32c-0.8125 2.1328-1.2266 4.3984-1.2266 6.6836v112.5h37.5v-109.06l148.77-390.51c2.1953-5.7656 1.4141-12.238-2.0859-17.316-3.4961-5.0781-9.2695-8.1133-15.438-8.1172zm-827.23 112.5h4.4531c18.047 0.019531 35.684 5.3711 50.703 15.379 15.02 10.004 26.746 24.223 33.719 40.871h-173.3c6.9727-16.648 18.699-30.867 33.719-40.871 15.02-10.008 32.656-15.359 50.703-15.379zm95.977 133.48c-0.027344 24.266-9.6797 47.527-26.84 64.684-17.156 17.156-40.422 26.805-64.684 26.832h-4.4531c-24.262-0.027344-47.527-9.6758-64.684-26.832-17.16-17.156-26.812-40.418-26.84-64.684v-39.734h187.5zm429.02-133.48h4.4531c17.418 0.042969 34.465 5.0664 49.129 14.469 14.668 9.4062 26.34 22.805 33.648 38.621-12.352-2.3008-24.09-7.1289-34.484-14.18-2.6914-1.9844-5.8633-3.2148-9.1875-3.5625-3.3281-0.34766-6.6836 0.19922-9.7266 1.5859-38.062 12.707-77.949 19.078-118.07 18.852 7.0312-16.531 18.762-30.629 33.742-40.547 14.977-9.918 32.539-15.219 50.5-15.238zm95.977 133.48c-0.027344 24.266-9.6797 47.527-26.84 64.684-17.156 17.156-40.422 26.805-64.684 26.832h-4.4531c-24.262-0.027344-47.527-9.6758-64.684-26.832-17.16-17.156-26.812-40.418-26.84-64.684v-40.004c44.328 0.14062 88.449-6.0781 131.01-18.461 17.402 9.7266 36.641 15.723 56.488 17.605z"/>
  <path d="m522.85 133.48c-15.672 3.2109-29.699 11.867-39.602 24.43s-15.035 28.227-14.496 44.215c0 69.453 92.809 133.32 121.25 151.23 2.9922 1.8906 6.457 2.8945 9.9961 2.8945s7.0039-1.0039 9.9961-2.8945c28.445-17.906 121.25-81.773 121.25-151.23 0.53906-15.988-4.5938-31.652-14.496-44.215s-23.93-21.219-39.602-24.43c-27.391-6.2852-56.129 1.0547-77.152 19.703-21.016-18.66-49.762-26-77.152-19.703zm60.398 58.867c3.5234 5.8945 9.8867 9.5039 16.754 9.5039s13.23-3.6094 16.754-9.5039c5.0039-8.8633 12.77-15.844 22.113-19.887 9.3398-4.0391 19.746-4.9141 29.633-2.4883 7.418 1.332 14.09 5.3438 18.742 11.273 4.6562 5.9258 6.9727 13.355 6.5078 20.879 0 37.207-48.449 82.598-93.75 113.01-45.301-30.414-93.75-75.805-93.75-113.01-0.46484-7.5234 1.8516-14.953 6.5078-20.879 4.6523-5.9297 11.324-9.9414 18.742-11.273 9.8828-2.2695 20.234-1.3242 29.543 2.6992 9.3086 4.0273 17.086 10.918 22.203 19.676z"/>
  <path d="m581.25 18.75h37.5v56.25h-37.5z"/>
  <path d="m753.22 120.26 39.77-39.77 26.516 26.516-39.77 39.77z"/>
  <path d="m380.49 107.01 26.516-26.516 39.77 39.77-26.516 26.516z"/>
  <path d="m277.73 524.67c44.59 8.5703 89.895 12.898 135.3 12.926 45.074 0.007813 90.047-4.3281 134.29-12.945 118.51-23.637 229.29-76.379 322.34-153.47l54.578 54.578c3.5156 3.5156 8.2852 5.4922 13.258 5.4922 1.7773 0.003906 3.543-0.25 5.2461-0.75 3.2266-0.9375 6.1406-2.7266 8.4375-5.1797 2.2969-2.4492 3.8906-5.4766 4.6172-8.7539l37.5-168.75c1.3906-6.2578-0.51562-12.789-5.0469-17.324-4.5273-4.5312-11.062-6.4375-17.32-5.0508l-168.75 37.5c-4.3906 0.97656-8.2852 3.5039-10.973 7.1133-2.6836 3.6133-3.9805 8.0703-3.6562 12.559 0.32812 4.4883 2.2578 8.707 5.4375 11.895l49.879 49.879h0.003906c-87.551 72.016-191.53 121.29-302.7 143.46-84.348 16.344-171.05 16.34-255.4-0.019531zm672.58-256.22-23.703 106.64-82.945-82.945z"/>
 </g>
</svg>
