<?xml version="1.0" encoding="UTF-8"?>
<svg width="1200pt" height="1200pt" version="1.1" viewBox="0 0 1200 1200" xmlns="http://www.w3.org/2000/svg">
 <path d="m1096.2 19.102h-992.34c-4.6602 0-9.1328 1.8516-12.43 5.1484-3.2969 3.2969-5.1484 7.7695-5.1484 12.43v832.48 1.125c-0.011719 0.21094-0.011719 0.42188 0 0.63281 0.03125 0.34766 0.085938 0.69141 0.16406 1.0312v0.72656l0.21094 0.84375c0 0.30469 0.16406 0.58594 0.25781 0.86719s0.16406 0.44531 0.23438 0.67969c0.070312 0.23438 0.25781 0.65625 0.375 0.96094l0.28125 0.58594c0.16406 0.32812 0.32812 0.65625 0.51562 0.98438v0.1875l0.16406 0.25781c0.30078 0.49609 0.62891 0.97266 0.98438 1.4297l0.32812 0.44531c0.41406 0.53906 0.87109 1.0508 1.3594 1.5234l0.39844 0.35156c0.375 0.35156 0.75 0.70313 1.1484 1.0078l0.58594 0.42188 1.2891 0.86719 0.42188 0.23437c0.60938 0.33594 1.2344 0.64063 1.875 0.91406h0.25781c0.5625 0.21094 1.125 0.39844 1.7109 0.5625h0.51562c0.51562 0.13672 1.043 0.24609 1.5703 0.32812h0.53906c0.65234 0.074219 1.3125 0.11328 1.9688 0.11719h0.32812c0.60156-0.003907 1.207-0.042969 1.8047-0.11719h0.65625c0.48828-0.070312 0.97266-0.16406 1.4531-0.28125l0.60937-0.16406c0.60547-0.16797 1.1992-0.37109 1.7812-0.60938h0.1875c0.67188-0.26562 1.3203-0.57812 1.9453-0.9375h0.14062l203.91-118.36h63.398c-30.379 42.996-46.68 94.355-46.664 147 0 91.828 48.914 172.76 122.67 219.09l0.1875 0.16406h0.11719c0.82812 0.60938 1.707 1.1523 2.625 1.6172h0.1875c38.934 23.609 83.176 37.055 128.66 39.102s90.758-7.3672 131.66-27.383h0.1875c0.32812-0.14063 0.63281-0.23438 0.9375-0.39844 0.55859-0.25781 1.0977-0.55859 1.6172-0.89062 85.43-43.312 143.98-130.45 144.21-230.72 0.023437-0.050781 0.023437-0.11328 0-0.16406v-0.32812-0.30469-0.14062c0.023437-0.050781 0.023437-0.11328 0-0.16406-0.11719-52.434-16.406-103.55-46.641-146.39h63.281l203.91 118.36h0.14062c0.625 0.35938 1.2734 0.67188 1.9453 0.9375h0.23437c0.55859 0.23047 1.1289 0.42578 1.7109 0.58594l0.65625 0.16406 1.4062 0.28125h0.67969c0.59766 0.074219 1.2031 0.11328 1.8047 0.11719h0.32812c0.65625-0.003906 1.3164-0.042969 1.9688-0.11719h0.53906c0.53906 0 1.0781-0.1875 1.5938-0.32812h0.49219c0.58594-0.16406 1.1484-0.35156 1.7109-0.5625h0.25781c0.65625-0.28125 1.2891-0.58594 1.8984-0.91406l0.375-0.23438c0.46875-0.28125 0.89062-0.5625 1.3125-0.86719l0.58594-0.42187c0.39844-0.30469 0.77344-0.65625 1.1484-1.0078l0.39844-0.35156c0.48828-0.47266 0.94531-0.98437 1.3594-1.5234l0.32812-0.44531c0.35547-0.45703 0.68359-0.93359 0.98438-1.4297l0.16406-0.25781v-0.1875c0.1875-0.32812 0.35156-0.65625 0.51562-0.98437l0.28125-0.58594c0.14063-0.30469 0.25781-0.63281 0.375-0.96094 0.11719-0.32812 0.16406-0.44531 0.23438-0.67969 0.070312-0.23438 0.16406-0.5625 0.25781-0.86719l0.21094-0.84375c0-0.23438 0-0.49219 0.11719-0.72656 0.078125-0.33984 0.13281-0.68359 0.16406-1.0312 0.011718-0.21094 0.011718-0.42188 0-0.63281v-1.125-832.55c0.007812-4.4922-1.707-8.8164-4.7891-12.086-3.0781-3.2695-7.2969-5.2344-11.781-5.4922zm-801.84 718.99-172.92 100.34v-780.47c36.656 15.68 77.812 77.672 113.09 172.55 38.859 104.3 59.836 215.79 59.836 267.75zm75 157.03c3.9141-48.035 23.398-93.477 55.5-129.42 11.695-13.188 24.867-24.984 39.258-35.156 4.4688-3.2188 9.0625-6.2422 13.781-9.0703l4.6875 9.0703 17.672 35.156 22.852 45.375-47.742 84.234h-106.1zm277.01-101.13h-92.719l-14.227-28.289-17.695-35.156-12.609-25.031c57.742-23.918 122.59-24.109 180.47-0.53906l-12.469 25.57-17.133 35.156zm47.977 118.71-47.438 83.648h-93.75l-47.273-83.555 47.273-83.555h93.75zm-325.08 17.766h106.1l46.594 82.359-59.25 81.281c-52.523-37.852-88.102-96.727-93.445-163.64zm320.16 190.22c-31.445 12.801-65.277 18.695-99.199 17.281-33.926-1.418-67.148-10.109-97.418-25.484l58.969-80.883h94.453l43.195 89.062zm31.453-15.727-43.805-90.328 47.602-84.164h106.1c-5.8828 73.688-48.422 137.62-109.9 174.4zm109.9-209.65h-106.1l-47.578-84.141 22.055-45.281 17.133-35.156 4.6875-9.7969c5.1094 3.125 10.094 6.3906 14.953 9.7969 14.391 10.172 27.562 21.969 39.258 35.156 32.145 35.926 51.668 81.375 55.594 129.42zm39.844-396.96v232.38h-80.156c-19.852-19.781-42.684-36.328-67.664-49.031-0.53125-0.33203-1.0781-0.63672-1.6406-0.91406-0.44141-0.21875-0.89453-0.41406-1.3594-0.58594-37.551-18.41-78.844-27.91-120.66-27.762-41.82 0.15234-83.043 9.9492-120.46 28.629-0.42188 0.15625-0.84375 0.34375-1.2656 0.5625-0.53125 0.26953-1.0469 0.56641-1.5469 0.89063-24.391 12.57-46.691 28.832-66.117 48.211h-80.156v-232.48c0-64.711-26.695-185.16-62.062-280.03-21.867-58.594-52.922-124.62-92.086-164.06h849.26c-39.164 39.352-70.312 105.28-92.086 164.06-35.367 94.922-62.062 215.37-62.062 280.03zm208.01 340.08-172.92-100.34v-239.84c0-51.961 20.977-163.45 59.836-267.75 35.273-94.875 76.43-156.87 113.09-172.43z"/>
</svg>
