<?xml version="1.0" encoding="UTF-8"?>
<svg width="1200pt" height="1200pt" version="1.1" viewBox="0 0 1200 1200" xmlns="http://www.w3.org/2000/svg">
 <g>
  <path d="m1173.8 603.75-150-112.5c-0.84375-0.63672-1.8203-1.0508-2.7383-1.5391-0.28125-0.14844-0.44922-0.39453-0.73047-0.52344l-206.25-93.75c-9.5234-4.3125-20.57-0.09375-24.824 9.3203-4.293 9.4141-0.13281 20.531 9.3008 24.824l168.71 76.688-295.86 134.48c2.1562-6.9922 3.6758-14.289 3.6758-21.977 0-41.363-33.637-75-75-75-41.363 0-75 33.637-75 75 0 7.707 1.5 14.98 3.6758 21.977l-295.86-134.48 243.71-110.77c9.4297-4.293 13.594-15.395 9.3008-24.824-4.2734-9.4141-15.32-13.633-24.824-9.3203l-281.25 127.84c-0.28125 0.13281-0.44922 0.375-0.71094 0.52344-0.9375 0.48828-1.8945 0.89844-2.7578 1.5547l-150.08 112.48c-5.3047 3.9766-8.1172 10.445-7.4062 17.023 0.71094 6.582 4.8555 12.301 10.875 15.039l412.5 187.5c2.4922 1.1445 5.1172 1.6875 7.7617 1.6875 3.9922 0 7.9492-1.2734 11.25-3.75l120-90v420.9l-375-170.46v-231.68c0-10.367-8.3828-18.75-18.75-18.75-10.367 0-18.75 8.3828-18.75 18.75v243.75c0 7.3672 4.293 14.023 10.988 17.062l412.5 187.5c0.30078 0.13281 0.60156 0.074219 0.89844 0.1875 2.1953 0.88281 4.4609 1.4805 6.8242 1.4805h0.09375c2.3828 0 4.668-0.61719 6.8633-1.4805 0.28125-0.11328 0.60156-0.054687 0.88281-0.1875l412.5-187.5c6.6758-3.0391 10.988-9.7109 10.988-17.062v-243.75c0-10.367-8.3828-18.75-18.75-18.75-10.367 0-18.75 8.3828-18.75 18.75v231.68l-375 170.46v-420.9l120 90c3.3008 2.4922 7.2578 3.75 11.25 3.75 2.6445 0 5.2695-0.54297 7.7617-1.6875l412.5-187.5c6.0195-2.7383 10.164-8.457 10.875-15.039 0.71094-6.582-2.082-13.051-7.4062-17.023zm-573.75-22.5c20.68 0 37.5 16.82 37.5 37.5s-16.82 37.5-37.5 37.5-37.5-16.82-37.5-37.5 16.82-37.5 37.5-37.5zm-152.36 203.34-373.59-169.82 115.82-86.852 373.59 169.8-115.82 86.867zm304.73 0-115.82-86.867 373.59-169.8 115.82 86.852-373.59 169.82z"/>
  <path d="m393.75 243.75h112.5c10.367 0 18.75-8.3984 18.75-18.75 0-41.363 33.637-75 75-75s75 33.637 75 75-33.637 75-75 75-75 33.637-75 75v131.25c0 10.352 8.3828 18.75 18.75 18.75h112.5c10.367 0 18.75-8.3984 18.75-18.75v-69.094c89.008-31.555 150-116.81 150-212.16 0-124.07-100.93-225-225-225s-225 100.93-225 225c0 10.352 8.3828 18.75 18.75 18.75zm206.25-206.25c103.39 0 187.5 84.113 187.5 187.5 0 83.438-56.082 157.63-136.37 180.43-8.0625 2.2891-13.633 9.6562-13.633 18.039v64.051h-75v-112.5c0-20.68 16.82-37.5 37.5-37.5 62.043 0 112.5-50.457 112.5-112.5s-50.457-112.5-112.5-112.5c-55.648 0-101.98 40.613-110.95 93.75h-75.617c9.4297-94.613 89.492-168.75 186.56-168.75z"/>
 </g>
</svg>
